<svg xmlns="http://www.w3.org/2000/svg" xmlns:xlink="http://www.w3.org/1999/xlink" width="205" height="90" viewBox="0 0 205 90">
  <defs>
    <clipPath id="clip-brand5">
      <rect width="205" height="90"/>
    </clipPath>
  </defs>
  <g id="brand5" clip-path="url(#clip-brand5)">
    <g id="hisense" transform="translate(102.4 44.614)">
      <g id="Group_799987" data-name="Group 799987" transform="translate(-73.4 -11.614)">
        <path id="Path_260964" data-name="Path 260964" d="M173.567,31.609l-2.519-1.057c-1.763-.707-3.095-1.229-2.864-1.958.132-.408.94-.679,3.357-.682a40.286,40.286,0,0,1,7.567.82l.337-3.452a43.9,43.9,0,0,0-7.788-.813,29.432,29.432,0,0,0-4.629.239c-2.246.32-6.045,1.3-6.233,4.435-.195,3.209,3.643,4.611,5.989,5.585l1.944.771c2.217.889,3.259,1.213,3.223,1.868-.037.719-1.573.837-3.662.771a58.273,58.273,0,0,1-7.577-.835l-.236,3.714a73.554,73.554,0,0,0,8.45.6c.332.007.665.011.994.011,4.1,0,9.1-.64,9.648-4.054.5-3.13-2.792-4.528-6-5.964" transform="translate(-122.033 -18.604)" fill="#fff"/>
        <path id="Path_260965" data-name="Path 260965" d="M268.6,34.679c1.413-8.024-5.7-9.588-7.37-9.841a16.37,16.37,0,0,0-2-.148c-7.474-.065-11.21,4.646-11.525,8.548C247.427,36.775,248.77,42,259.749,42a28.4,28.4,0,0,0,7.73-.912l.542-3.436a37.1,37.1,0,0,1-7.417.823c-.113,0-.22-.006-.33-.007-4.988-.17-5.981-2.618-5.988-3.739,0,0,0-.023-.005-.054Zm-14.047-3.147a4.273,4.273,0,0,1,4.542-3.554c4.186.036,3.911,3.554,3.911,3.554Z" transform="translate(-188.345 -18.775)" fill="#fff"/>
        <path id="Path_260966" data-name="Path 260966" d="M545.6,34.679c1.412-8.024-5.7-9.588-7.369-9.841a16.392,16.392,0,0,0-2-.148c-7.474-.065-11.209,4.646-11.525,8.548C524.424,36.775,525.766,42,536.746,42a28.418,28.418,0,0,0,7.731-.912c.116-.744.356-2.265.541-3.436a37.1,37.1,0,0,1-7.417.823c-.114,0-.221-.006-.331-.007-4.988-.17-5.98-2.618-5.987-3.739l-.006-.054Zm-14.047-3.147a4.273,4.273,0,0,1,4.542-3.554c4.187.036,3.91,3.554,3.91,3.554Z" transform="translate(-398.986 -18.775)" fill="#fff"/>
        <path id="Path_260967" data-name="Path 260967" d="M357.794,31.017c-.186,2.955-.7,10.923-.7,10.923h6.573l.7-11.1c.315-5.039-3.25-5.411-5.608-5.655-.158-.017-1.411-.118-3.126-.118-.443,0-.917.006-1.411.023-4.089.14-9.283.745-9.283.745l-1.031,16.1h6.6l.8-13.069a27.1,27.1,0,0,1,4.184-.255c.626.027,2.446,0,2.3,2.4" transform="translate(-261.526 -19.066)" fill="#fff"/>
        <path id="Path_260968" data-name="Path 260968" d="M129.057,0H123.6l-.33,4.37h7.044s.18-2.491.206-2.909C130.581.481,130.188,0,129.057,0" transform="translate(-93.738 0)" fill="#fff"/>
        <path id="Path_260969" data-name="Path 260969" d="M450.88,31.6l-2.52-1.056c-1.762-.707-3.094-1.229-2.863-1.958.132-.407.94-.678,3.358-.682a40.28,40.28,0,0,1,7.567.821l.337-3.452a43.914,43.914,0,0,0-7.788-.813,29.469,29.469,0,0,0-4.629.239c-2.246.321-6.045,1.3-6.233,4.434-.195,3.211,3.642,4.612,5.988,5.586l1.945.77c2.217.89,3.259,1.214,3.224,1.869-.039.718-1.574.836-3.663.771a58.256,58.256,0,0,1-7.576-.836l-.236,3.714a73.6,73.6,0,0,0,8.45.6c.332.009.663.012.993.012,4.1,0,9.1-.639,9.649-4.054.5-3.131-2.792-4.527-6-5.964" transform="translate(-332.913 -18.6)" fill="#fff"/>
        <path id="Path_260970" data-name="Path 260970" d="M19.293,0l-.621,8.005H8.361l.508-6.545C8.885.053,7.694,0,7.1,0H1.782L0,22.906H7.2L7.99,12.782H18.3l-.787,10.123h7.179L26.469,0Z" transform="translate(0 0)" fill="#fff"/>
        <path id="Path_260971" data-name="Path 260971" d="M118.467,26.045l-1.282,16.666h7.037l1.288-16.666Z" transform="translate(-89.112 -19.806)" fill="#fff"/>
      </g>
    </g>
  </g>
</svg>
