<svg xmlns="http://www.w3.org/2000/svg" xmlns:xlink="http://www.w3.org/1999/xlink" width="205" height="90" viewBox="0 0 205 90">
  <defs>
    <clipPath id="clip-brand1">
      <rect width="205" height="90"/>
    </clipPath>
  </defs>
  <g id="brand1" clip-path="url(#clip-brand1)">
    <g id="TurboX" transform="translate(-6.862 9.881)">
      <g id="TURBO-X_NEW_" data-name="TURBO-X[NEW]" transform="translate(109.161 35.523)">
        <g id="TURBO-X_NEW_2" data-name="TURBO-X[NEW]" transform="translate(-73.299 -12.404)">
          <g id="Group_799957" data-name="Group 799957">
            <g id="Group_799951" data-name="Group 799951" transform="translate(89.286 0.024)">
              <path id="Path_260840" data-name="Path 260840" d="M94.032,12.369a9.5,9.5,0,1,0,19,0,9.5,9.5,0,1,0-19,0m21.943.036a12.443,12.443,0,0,1-24.885,0,12.443,12.443,0,0,1,24.885,0" transform="translate(-91.089 -0.024)" fill="#fff"/>
            </g>
            <g id="Group_799952" data-name="Group 799952" transform="translate(68.191 0.422)">
              <path id="Path_260841" data-name="Path 260841" d="M86.056,17.423c0-2.759-1.889-4.43-4.976-4.43H72.4v8.859h8.678c3.088,0,4.976-1.67,4.976-4.43M72.4,2.972v7.444h7.043c2.615,0,4.214-1.379,4.214-3.739,0-2.324-1.562-3.7-4.214-3.7ZM88.962,17.5c0,4.139-3.015,6.9-7.593,6.9H71.058a1.451,1.451,0,0,1-1.49-1.489V1.92A1.451,1.451,0,0,1,71.058.431h8.677c4.106,0,6.83,2.433,6.83,6.064a5.7,5.7,0,0,1-2.289,4.72A6.193,6.193,0,0,1,88.962,17.5" transform="translate(-69.568 -0.431)" fill="#fff"/>
            </g>
            <g id="Group_799953" data-name="Group 799953" transform="translate(121.763)">
              <path id="Path_260842" data-name="Path 260842" d="M125.623,24.807a1.389,1.389,0,0,1-.982-2.372l10.98-10.971.039-.041.043-.041L146.686.407a1.389,1.389,0,1,1,1.964,1.965L138.609,12.4l10.041,10.03a1.39,1.39,0,0,1-1.964,1.966L136.644,14.369,126.6,24.4A1.385,1.385,0,0,1,125.623,24.807Zm4.8-17.209a1.388,1.388,0,0,1-.982-.406L124.63,2.384A1.39,1.39,0,0,1,126.594.418l4.815,4.808a1.389,1.389,0,0,1-.982,2.372Z" transform="translate(-124.222 0)" fill="#fff"/>
            </g>
            <g id="Group_799954" data-name="Group 799954" transform="translate(46.077 0.422)">
              <path id="Path_260843" data-name="Path 260843" d="M49.842,11.8h7.336c3.015,0,4.832-1.67,4.832-4.393,0-2.687-1.854-4.431-4.832-4.431H49.842ZM66.95,23.523a1.3,1.3,0,0,1-1.344,1.27,1.62,1.62,0,0,1-1.236-.763l-7.229-9.694h-7.3v9.005a1.426,1.426,0,0,1-1.417,1.452,1.4,1.4,0,0,1-1.416-1.452V1.883A1.434,1.434,0,0,1,48.462.431h8.826c4.577,0,7.665,2.8,7.665,6.934a6.576,6.576,0,0,1-4.76,6.536l6.285,8.532a1.8,1.8,0,0,1,.472,1.09" transform="translate(-47.008 -0.431)" fill="#fff"/>
            </g>
            <g id="Group_799955" data-name="Group 799955" transform="translate(22.756 0.422)">
              <path id="Path_260844" data-name="Path 260844" d="M23.216,14.881V1.92A1.435,1.435,0,0,1,24.632.431,1.414,1.414,0,0,1,26.05,1.92V15.062c0,4.393,2.579,7.117,6.72,7.117,4.105,0,6.648-2.724,6.648-7.117V1.92A1.436,1.436,0,0,1,40.835.431,1.412,1.412,0,0,1,42.252,1.92V14.881c0,6.027-3.741,9.912-9.481,9.912-5.849,0-9.554-3.848-9.554-9.912" transform="translate(-23.216 -0.431)" fill="#fff"/>
            </g>
            <g id="Group_799956" data-name="Group 799956" transform="translate(0 0.422)">
              <path id="Path_260845" data-name="Path 260845" d="M8.573,23.3V2.972H1.344A1.281,1.281,0,0,1,0,1.7,1.3,1.3,0,0,1,1.344.431H18.709A1.294,1.294,0,0,1,20.017,1.7a1.271,1.271,0,0,1-1.308,1.27h-7.3V23.3A1.412,1.412,0,0,1,9.99,24.793,1.435,1.435,0,0,1,8.573,23.3" transform="translate(0 -0.431)" fill="#fff"/>
            </g>
          </g>
        </g>
      </g>
    </g>
  </g>
</svg>
