<svg xmlns="http://www.w3.org/2000/svg" xmlns:xlink="http://www.w3.org/1999/xlink" width="205" height="90" viewBox="0 0 205 90">
  <defs>
    <clipPath id="clip-brand4">
      <rect width="205" height="90"/>
    </clipPath>
  </defs>
  <g id="brand4" clip-path="url(#clip-brand4)">
    <g id="LG_Logo_White" data-name="LG Logo White" transform="translate(133.666 59.094)">
      <g id="Group_837423" data-name="Group 837423" transform="translate(-79.666 -35.094)">
        <path id="Path_330971" data-name="Path 330971" d="M17.329,14.588a2.734,2.734,0,1,1-2.736-2.736,2.737,2.737,0,0,1,2.736,2.736M26.72,28.976v2.007h-6.3V11.864h2.039V28.976Zm7.521,5.255a18.106,18.106,0,1,1-12.8-30.908l1.019.012v2l-1.017-.012A16.1,16.1,0,1,0,37.5,22.511s0-.03,0-.064H26.72v-2H38.656l.887,0v.982a18,18,0,0,1-5.3,12.8M21.435,0A21.434,21.434,0,1,0,42.869,21.434,21.436,21.436,0,0,0,21.435,0" fill="#fff"/>
        <path id="Path_330972" data-name="Path 330972" d="M191.484,26.326h-6.4V54.038h19.666v-5.4H191.484Z" transform="translate(-132.628 -18.865)" fill="#fff"/>
        <g id="Group_837422" data-name="Group 837422" transform="translate(72.895 7.049)">
          <path id="Path_330973" data-name="Path 330973" d="M270.518,42.435h5.212V47.28a14.673,14.673,0,0,1-4.616.733c-5.764,0-7.684-2.929-7.684-8.873,0-5.67,1.828-9.009,7.59-9.009,3.2,0,5.03,1.006,6.539,2.928L281.54,29.4c-2.426-3.474-6.679-4.527-10.658-4.527-8.963,0-13.674,4.893-13.674,14.221,0,9.285,4.253,14.315,13.628,14.315,4.3,0,8.507-1.1,10.793-2.7V37.267H270.518Z" transform="translate(-257.209 -24.873)" fill="#fff"/>
        </g>
      </g>
    </g>
  </g>
</svg>
