<svg xmlns="http://www.w3.org/2000/svg" xmlns:xlink="http://www.w3.org/1999/xlink" width="205" height="90" viewBox="0 0 205 90">
  <defs>
    <clipPath id="clip-brand2">
      <rect width="205" height="90"/>
    </clipPath>
  </defs>
  <g id="brand2" clip-path="url(#clip-brand2)">
    <g id="Samsung_B_" data-name="Samsung [B]" transform="translate(98.488 44.346)">
      <g id="Group_800005" data-name="Group 800005" transform="translate(-74.488 -11.346)">
        <path id="Path_261054" data-name="Path 261054" d="M201.643,18.739l-.306-17.588h5.579V23.329h-8.022l-5.558-18.2h-.125l.313,18.2h-5.539V1.151h8.36l5.176,17.588Z" transform="translate(-71.224 -0.436)" fill="#fff"/>
        <path id="Path_261055" data-name="Path 261055" d="M41.263,3.229l-3.079,20.33H32.1L36.271,1.151h10.02L50.44,23.559H44.39l-3-20.334Z" transform="translate(-12.161 -0.436)" fill="#fff"/>
        <path id="Path_261056" data-name="Path 261056" d="M81.45,18.285,84.228,1.151h9.18l.5,22.408H88.273L88.129,3.416l-.122.006L84.244,23.559H78.528L74.768,3.416h-.125L74.5,23.559H68.866l.5-22.408h9.184l2.775,17.134Z" transform="translate(-26.092 -0.436)" fill="#fff"/>
        <path id="Path_261057" data-name="Path 261057" d="M10.458,16.8a2.9,2.9,0,0,1,.045,1.658A1.946,1.946,0,0,1,8.31,19.964a2.008,2.008,0,0,1-2.262-2.03l-.007-2.172H0l0,1.73C0,22.49,3.953,24,8.183,24c4.078,0,7.426-1.386,7.963-5.122a10.965,10.965,0,0,0-.024-3.676c-.952-4.691-9.5-6.091-10.134-8.715a2.9,2.9,0,0,1-.025-1.176A1.857,1.857,0,0,1,8.02,3.8a1.914,1.914,0,0,1,2.093,2.031V7.223h5.621V5.644C15.734.768,11.328,0,8.14,0,4.14,0,.865,1.321.266,4.976A7.749,7.749,0,0,0,.318,8C1.3,12.576,9.3,13.9,10.458,16.8Z" transform="translate(0 0)" fill="#fff"/>
        <path id="Path_261058" data-name="Path 261058" d="M128.391,16.834a2.9,2.9,0,0,1,.045,1.639,1.928,1.928,0,0,1-2.172,1.492,1.99,1.99,0,0,1-2.243-2.01l0-2.151h-5.977l-.007,1.711c0,4.947,3.918,6.441,8.107,6.441,4.031,0,7.351-1.366,7.878-5.072A10.794,10.794,0,0,0,134,15.252c-.942-4.648-9.4-6.034-10.032-8.635a2.777,2.777,0,0,1-.026-1.16,1.837,1.837,0,0,1,2.035-1.489,1.893,1.893,0,0,1,2.071,2.009v1.37h5.567V5.79c0-4.832-4.366-5.59-7.521-5.59-3.956,0-7.2,1.306-7.791,4.924a7.519,7.519,0,0,0,.054,2.993C119.32,12.652,127.241,13.962,128.391,16.834Z" transform="translate(-44.721 -0.076)" fill="#fff"/>
        <path id="Path_261059" data-name="Path 261059" d="M160.32,20.2a2.015,2.015,0,0,0,2.156-1.625,4.463,4.463,0,0,0,.057-.855V1.142h5.7V17.21c.007.415-.035,1.257-.059,1.475-.393,4.182-3.716,5.537-7.853,5.537s-7.461-1.355-7.857-5.537c-.024-.218-.066-1.06-.052-1.475V1.142H158.1V17.721a4.91,4.91,0,0,0,.054.855A2.027,2.027,0,0,0,160.32,20.2Z" transform="translate(-57.745 -0.433)" fill="#fff"/>
        <path id="Path_261060" data-name="Path 261060" d="M235.9,19.6a2.1,2.1,0,0,0,2.3-1.627,4.347,4.347,0,0,0,.054-.853V13.869h-2.309V10.6h7.977v6a14.638,14.638,0,0,1-.082,1.476c-.373,4.08-3.928,5.537-7.919,5.537s-7.544-1.457-7.921-5.537c-.064-.745-.076-1.055-.078-1.476l0-9.425c0-.4.047-1.1.094-1.473.5-4.188,3.911-5.535,7.9-5.535s7.488,1.33,7.9,5.535a13.122,13.122,0,0,1,.047,1.473l0,.745H238.2V6.673a5.377,5.377,0,0,0-.068-.851A2.052,2.052,0,0,0,235.878,4.2a2.08,2.08,0,0,0-2.243,1.626,5.269,5.269,0,0,0-.092,1.061V17.121a5.018,5.018,0,0,0,.054.853A2.1,2.1,0,0,0,235.9,19.6Z" transform="translate(-86.355 -0.066)" fill="#fff"/>
      </g>
    </g>
  </g>
</svg>
