<svg xmlns="http://www.w3.org/2000/svg" xmlns:xlink="http://www.w3.org/1999/xlink" width="205" height="90" viewBox="0 0 205 90">
  <defs>
    <clipPath id="clip-brand6">
      <rect width="205" height="90"/>
    </clipPath>
  </defs>
  <g id="brand6" clip-path="url(#clip-brand6)">
    <g id="Sony_B_" data-name="Sony [B]" transform="translate(102.481 44.942)">
      <g id="Group_799984" data-name="Group 799984" transform="translate(-68.481 -11.943)">
        <path id="Path_260946" data-name="Path 260946" d="M183.477,26.348a2.088,2.088,0,1,0,2.082,2.082,2.087,2.087,0,0,0-2.082-2.082Zm0,3.923a1.836,1.836,0,1,1,1.83-1.841,1.834,1.834,0,0,1-1.83,1.841Z" transform="translate(-48.596 -7.059)" fill="#fff" fill-rule="evenodd"/>
        <path id="Path_260947" data-name="Path 260947" d="M185.03,28.219a.573.573,0,0,0-.262-.5,1.077,1.077,0,0,0-.569-.115h-1.016v2.333h.284V28.859h.524l.667,1.076H185l-.7-1.076h0c.415-.011.738-.181.738-.64Zm-1.126.416h-.437V27.81h.667c.289,0,.606.043.606.4,0,.475-.508.421-.836.421Z" transform="translate(-49.078 -7.395)" fill="#fff" fill-rule="evenodd"/>
        <path id="Path_260948" data-name="Path 260948" d="M160.811,9.863l4.268-4.557h0a1.447,1.447,0,0,0,.37-.769c0-.335-.288-.469-1.193-.469H163.18V1.192h11.657V4.068H173.3c-1.769,0-2.1.267-4.565,3.379h0l-6.753,7.292v4.45h0c0,1.138.576,1.538,2.221,1.538h2.55V23.5H150.432V20.727h2.55c1.644,0,2.22-.4,2.22-1.538h0v-4.45l-7.953-8.8h0c-1.315-1.538-1.133-1.873-4.792-1.873h0V1.192h14.765V4.068H156.17c-1.069,0-1.522.2-1.522.6,0,.335.329.6.535.869h0l4.023,4.385h0a.977.977,0,0,0,1.6-.061Z" transform="translate(-38.167 -0.319)" fill="#fff" fill-rule="evenodd"/>
        <path id="Path_260949" data-name="Path 260949" d="M23.581.933h3.561V8.961H23.853c-.291-1.6-1.3-2.229-2.212-3.071-1.652-1.518-5.23-2.783-8.24-2.783-3.884,0-7.162,1.205-7.162,2.977,0,4.918,22.215,1,22.215,10.3,0,4.85-4.759,7.559-13.3,7.559A25.05,25.05,0,0,1,5.073,21.627c-.829-.479-1.18.452-1.335,1.619H.086v-8.3h3.3c.728,2.108,1.732,2.542,2.655,3.379,1.6,1.471,5.414,2.543,8.911,2.508,5.272-.051,7.085-1.2,7.085-2.876s-1.793-2.074-7.57-2.977h0l-4.9-.8h0C4.03,13.343,0,12.106,0,7.69,0,3.107,5.1.231,13.158.231a17.333,17.333,0,0,1,8.967,2c.757.49,1.466.549,1.456-1.294Z" transform="translate(0 -0.062)" fill="#fff" fill-rule="evenodd"/>
        <path id="Path_260950" data-name="Path 260950" d="M117.7,14.692l.07-8.922h0c0-1.171-.608-1.572-2.349-1.572h-2.045V1.422h13.01V4.2h-1.7c-1.742,0-2.351.4-2.351,1.572h0V23.734l-5.092-.04L100.756,8.079V19.418h0c0,1.138.609,1.573,2.349,1.573h2.263v2.743H91.859V20.99H94.1c1.74,0,2.349-.434,2.349-1.573h0V5.771h0C96.446,4.6,95.837,4.2,94.1,4.2H91.859V1.422H103.54L117.7,14.692Z" transform="translate(-24.611 -0.381)" fill="#fff" fill-rule="evenodd"/>
        <path id="Path_260951" data-name="Path 260951" d="M61.463,0C51.094,0,44.6,4.584,44.6,11.942c0,7.226,6.4,11.774,16.541,11.774,10.772,0,17.038-4.482,17.038-12.142C78.184,4.684,71.423,0,61.463,0Zm-.236,20.806c-5.739,0-9.038-3.312-9.038-9.032,0-5.586,3.442-8.9,9.324-8.9,5.643,0,8.942,3.379,8.942,9.132,0,5.62-3.346,8.8-9.228,8.8Z" transform="translate(-11.951)" fill="#fff" fill-rule="evenodd"/>
      </g>
    </g>
  </g>
</svg>
