<svg xmlns="http://www.w3.org/2000/svg" width="93.825" height="153.344" viewBox="0 0 93.825 153.344">
  <g id="cup" transform="translate(22 -11.72) rotate(17)">
    <path id="Path_263337" data-name="Path 263337" d="M36.492,95.917C58.815,46.9,45.975,16,45.975,16s-5.328,10.656-21.311,7.992l-.213.426L22,29.319a49.012,49.012,0,0,1,2.664,4.475A95.527,95.527,0,0,1,37.078,78.282a121.874,121.874,0,0,1-.32,14.252,33.508,33.508,0,0,1-.266,3.383Z" transform="translate(0 18.29)" fill="#fd0" stroke="#000" stroke-width="2"/>
    <path id="Path_263338" data-name="Path 263338" d="M66.343,16a46.272,46.272,0,0,1-29.3,0s12.84,30.9-9.483,79.917V96.8a4.244,4.244,0,0,1-.186,1.279,62.415,62.415,0,0,0,23.975-22.8C59.39,62.7,66.343,43.758,66.343,16Z" transform="translate(8.936 18.29)" fill="#fdb913" stroke="#000" stroke-width="2"/>
    <path id="Path_263339" data-name="Path 263339" d="M52.749,38.29a62.415,62.415,0,0,1-23.975,22.8A93.238,93.238,0,0,1,26.51,72.148h29.3A110.232,110.232,0,0,1,52.749,38.29Z" transform="translate(7.505 55.379)" fill="#fd0" stroke="#000" stroke-width="2"/>
    <path id="Path_263340" data-name="Path 263340" d="M23,65.656H70.95A67.4,67.4,0,0,1,65.223,55H28.7A65.134,65.134,0,0,1,23,65.656Z" transform="translate(1.664 83.182)" fill="#fdb913" stroke="#000" stroke-width="2"/>
    <path id="Path_263341" data-name="Path 263341" d="M28.79,51a76.188,76.188,0,0,1-3.65,10.656H61.662A79.675,79.675,0,0,1,58.039,51Z" transform="translate(5.225 76.527)" fill="#00a651" stroke="#000" stroke-width="2"/>
    <path id="Path_263342" data-name="Path 263342" d="M45.027,11.927a17.315,17.315,0,0,1-6.66-6.287,26.639,26.639,0,0,0-15.8,16.143,30.5,30.5,0,0,0,6.473.8c10.656,0,5.328,7.992,5.328,13.319a8.285,8.285,0,0,0,1.652,4.529,16.489,16.489,0,0,0,9-7.193A46.166,46.166,0,0,0,61.01,35.582a10.656,10.656,0,0,1-2.664-7.672c0-7.992,0-7.992-13.319-15.983Z" transform="translate(0.949 1.053)" fill="#faa61a" stroke="#000" stroke-width="2"/>
    <g id="Group_939772" data-name="Group 939772" transform="translate(22 5.007)">
      <path id="Path_263343" data-name="Path 263343" d="M64.463,31.627A26.639,26.639,0,0,0,28.5,6.693a17.315,17.315,0,0,0,6.66,6.287c13.319,7.992,13.319,7.992,13.319,15.983a10.656,10.656,0,0,0,2.664,7.672A43.288,43.288,0,0,0,64.463,34.29c0-.826,0-1.732,0-2.664Z" transform="translate(-11.184 -5.007)" fill="#ffcb05" stroke="#000" stroke-width="2"/>
      <path id="Path_263344" data-name="Path 263344" d="M29.992,12.5a30.5,30.5,0,0,1-6.473-.8,26.239,26.239,0,0,0,.932,19.873l.213-.426a24.215,24.215,0,0,0,12.307-.8,8.285,8.285,0,0,1-1.652-4.529c0-5.328,5.328-13.319-5.328-13.319Z" transform="translate(-22 6.128)" fill="#ffcb05" stroke="#000" stroke-width="2"/>
    </g>
  </g>
</svg>
