<svg xmlns="http://www.w3.org/2000/svg" xmlns:xlink="http://www.w3.org/1999/xlink" width="470" height="527" viewBox="0 0 470 527">
  <defs>
    <clipPath id="clip-path">
      <rect id="Rectangle_346978" data-name="Rectangle 346978" width="478" height="532" transform="translate(-11367 -9757)" fill="#fff" stroke="#707070" stroke-width="1"/>
    </clipPath>
    <clipPath id="clip-path-2">
      <rect id="Rectangle_346917" data-name="Rectangle 346917" width="443.512" height="319.138" fill="#0d204b"/>
    </clipPath>
    <clipPath id="clip-path-3">
      <rect id="Rectangle_346950" data-name="Rectangle 346950" width="31.809" height="16.194" fill="#fff"/>
    </clipPath>
    <clipPath id="clip-fan_cta">
      <rect width="470" height="527"/>
    </clipPath>
  </defs>
  <g id="fan_cta" clip-path="url(#clip-fan_cta)">
    <g id="Mask_Group_137365" data-name="Mask Group 137365" transform="translate(11363 9757)" clip-path="url(#clip-path)">
      <g id="Group_940208" data-name="Group 940208" transform="translate(-12091.4 -12189)">
        <g id="Group_940198" data-name="Group 940198" transform="translate(707 2431.876)">
          <path id="Path_332045" data-name="Path 332045" d="M435.355,637.207c-1.792-3.894-3.749-7.715-5.444-11.65-1.274-2.958-2.261-6.041-3.345-9.08a11.8,11.8,0,0,1-.378-1.753,22.173,22.173,0,0,0-.564-2.978q-2.074-6.15-4.282-12.256a16.434,16.434,0,0,1-1.264-7.151c.1-1.1.065-2.217.219-3.308a5.339,5.339,0,0,1,.692-2.194,36.658,36.658,0,0,1,2.827-3.565,7.744,7.744,0,0,0,2.322-5.73,8.412,8.412,0,0,1,.661-3.9c.726-1.747.05-3.474-.488-5.118-.384-1.174-1.6-1.579-2.654-2.057a7.283,7.283,0,0,1-1.921-1.052,11.142,11.142,0,0,0-5.334-2.469,3.2,3.2,0,0,0-3.231.7c-.388.413-.791.3-1.258.286a29.311,29.311,0,0,0-3.43.04,2.25,2.25,0,0,0-2.056,1.628,2.136,2.136,0,0,1-1.9,1.67,5.327,5.327,0,0,0-1.2.322c-.536.243-1.274.446-1.5.887-.567,1.091-1.513,1.192-2.51,1.415a2.821,2.821,0,0,0-2.5,2.88,4.6,4.6,0,0,0,.214,1.9,8.5,8.5,0,0,1,.224,4.359,7.206,7.206,0,0,0-.083,2.061c.357,2.674.353,5.431,1.72,7.892a2.625,2.625,0,0,1,.3,1.2,7.748,7.748,0,0,0,1.213,3.487,24.029,24.029,0,0,1,1.525,3.392,44.055,44.055,0,0,1,1.534,5.454c.815,4.158,1.463,8.349,2.238,12.515.623,3.352,1.254,6.705,2.027,10.025a113.12,113.12,0,0,1,2.424,12.758c.226,1.967-207.745-1.747-210.938-3.056a30.022,30.022,0,0,0-5.67-1.426c-2.053-.407-4.122-.757-6.2-1.01a9.924,9.924,0,0,0-4.325.326c-4.425,1.445-8.78,3.072-13.052,4.921a24.967,24.967,0,0,0-3.43,1.815c-.97-1.543-1.91-3.107-2.875-4.653a11.665,11.665,0,0,1-.742-1.632,22.351,22.351,0,0,0-1.186-2.79q-3.336-5.568-6.794-11.064a16.431,16.431,0,0,1-2.758-6.717c-.135-1.1-.409-2.18-.491-3.279a5.344,5.344,0,0,1,.21-2.292,36.677,36.677,0,0,1,2-4.085,7.747,7.747,0,0,0,1.05-6.094,8.406,8.406,0,0,1-.187-3.955c.338-1.862-.69-3.4-1.566-4.9-.625-1.065-1.894-1.2-3.031-1.445a7.282,7.282,0,0,1-2.1-.619,11.146,11.146,0,0,0-5.737-1.277,3.2,3.2,0,0,0-3.008,1.373c-.29.486-.708.464-1.168.547a29.246,29.246,0,0,0-3.342.77,2.249,2.249,0,0,0-1.663,2.028,2.136,2.136,0,0,1-1.5,2.036,5.368,5.368,0,0,0-1.1.57c-.472.352-1.15.708-1.28,1.186-.322,1.187-1.225,1.488-2.152,1.917a2.821,2.821,0,0,0-1.827,3.346,4.606,4.606,0,0,0,.612,1.809,8.482,8.482,0,0,1,1.147,4.211,7.187,7.187,0,0,0,.358,2.031c.918,2.536,1.5,5.231,3.361,7.344a2.629,2.629,0,0,1,.549,1.109,7.749,7.749,0,0,0,1.928,3.149,24.129,24.129,0,0,1,2.212,2.99,44.009,44.009,0,0,1,2.66,5c1.682,3.889,3.207,7.846,4.85,11.751,1.323,3.142-39.677,1.367-36.585-8.3,3.511-10.976,5.66-22.26,7.529-33.6,1.288-7.809,2.344-15.656,3.531-23.483,1.375-9.071,2.8-18.135,4.157-27.209.407-2.73.623-5.488.979-8.227a12.585,12.585,0,0,1,.6-2.326c.764-2.28-41.876,28.088-44.067,39.122-2.091,10.524-4.136,21.066-9.144,30.759-3.417,6.616-6.818,13.22-11.339,19.171-.729.959-1.549,1.848-2.508,2.985-.14-2.021-.3-3.663-.357-5.309-.127-3.357-.053-6.727-.332-10.069A117.669,117.669,0,0,0,52.115,593.1c-.838-3.417-1.565-6.863-2.247-10.315-.814-4.117-1.437-8.274-2.309-12.378-.825-3.883-1.88-7.717-2.8-11.579a60.527,60.527,0,0,0-1.422-6.14c-1.52-4.286-3.21-8.514-4.932-12.724-1.1-2.684-2.292-5.336-3.592-7.927-2.941-5.862-7.111-10.858-11.4-15.748a29.948,29.948,0,0,0-9.015-7.421l22.043-320.7a6.661,6.661,0,0,0,1.366.215c29.156,1.5,13.674,27.861,201.319,13.823,157.977-12,181.752,11.755,201.528,15.077L417.092,560.075a3.68,3.68,0,0,0,3.336,3.895c.072.007.145.013.218.018a4.639,4.639,0,0,0,3.746-1.087h-.013L460.163,41.68a3.611,3.611,0,0,0-1.117-2.861,5.456,5.456,0,0,0-1.7-10.535,5.523,5.523,0,0,0-5.927,5.085,5.46,5.46,0,0,0,2.793,5.122,3.614,3.614,0,0,0-1.494,2.679l-.2,2.912C432.827,41.132,318.832,19.341,250.631,34.2,155.085,55.022,72,14.565,48.365,14.056l.044-.646a3.614,3.614,0,0,0-1.116-2.861,5.465,5.465,0,0,0,3.467-4.692,5.562,5.562,0,0,0-11.1-.759,5.462,5.462,0,0,0,2.793,5.122A3.613,3.613,0,0,0,40.961,12.9l-.034.5a3.566,3.566,0,0,0-.306,1.214L33.167,123.229a3.549,3.549,0,0,0,.135,1.239L7.054,506.807a12.66,12.66,0,0,0-6.449.945c-.2.087-.467.252-.6.184" transform="matrix(0.998, -0.07, 0.07, 0.998, 0, 32.264)" fill="#0d204b"/>
          <g id="Group_940048" data-name="Group 940048" transform="translate(33.212 232.277)">
            <g id="Group_940047" data-name="Group 940047" transform="translate(0)">
              <g id="Group_940046" data-name="Group 940046" clip-path="url(#clip-path-2)">
                <path id="Path_331858" data-name="Path 331858" d="M1818.869,1465.134s-13.056-150.06-13.374-165.306,8.576-29.538,9.211-41.29c0,0,14.293,1.906,30.491-7.623s27.315-7.623,36.208-16.516,18.422-23.5,22.551-23.186,17.469-1.271,23.5-3.811,2.223-6.671,2.223-6.671-.158-6.035-2.064-8.258.476-5.4-1.112-8.258,1.429-3.494-1.27-5.082-7.94-4.129-10.164-4.129-13.34,4.129-15.563,6.035-3.018,7.623-7.94,12.387a63.232,63.232,0,0,1-19.693,12.546c-6.829,2.541-14.928,6.67-17.945,9.846s-23.98,8.576-30.174,9.211-15.087-3.017-29.7,2.223-28.109.158-31.762-2.859-2.064-6.353-2.064-6.353,2.064-.318,4.447-4.129,3.335-7.941,4.288-11.275,1.429-15.722-1.747-25.251-9.053-16.2-20.645-19.216-25.728-.317-31.127,4.288h3.274s-5.815,2.065-8.515,6.511l3.335-.794s-4.13,7.782-.953,20.01c0,0-2.7,10.8-3.177,14.293s.318,11.911,1.906,14.769,2.382,8.735,2.382,8.735-16.675-.159-25.568-3.018-30.333,4.446-60.824-1.112-39.226-9.528-61.3-12.546-28.427-4.446-39.385-5.082-18.422-4.288-21.281-4.288-13.326,2.382-15.073,3.653-2.916,8.575-2.916,9.37.4,4.173,3.1,5.125a10.166,10.166,0,0,1,3.45,1.7,22.492,22.492,0,0,0,3.148,4.188c4.635,4.116,9.531,1.975,14.048-.7,4.629-2.739,10.406-3.488,15.677-2.97,15.753,1.547,21.757,3.132,24.774,4.4s37.955,17.786,51.137,20.327,51.454,8.734,57.965,9.687,18.422-.318,22.551,3.653,8.1,14.769,11.434,23.822,10.958,36.526,12.387,46.213-.533,142.7-.533,142.7,66.208,14.345,112.368-5.983" transform="translate(-1487.358 -1156.893)" fill="#0d204b"/>
              </g>
            </g>
          </g>
        </g>
        <g id="Group_940204" data-name="Group 940204" transform="translate(810.088 2514.745)">
          <text id="Βρες_την_ιδανική_ίντσα" data-name="Βρες την ιδανική ίντσα" transform="translate(149.912 25.254)" fill="#fff" font-size="27" font-family="CFAstyPlaisio-Bold, CF Asty Plaisio" font-weight="700"><tspan x="-149.998" y="0">Βρες την ιδανική ίντσα</tspan></text>
          <g id="Group_940201" data-name="Group 940201" transform="translate(52.065 47.577)">
            <g id="Group_940127" data-name="Group 940127" transform="translate(32.316 15.26)">
              <g id="Group_940125" data-name="Group 940125">
                <g id="Group_940197" data-name="Group 940197">
                  <g id="Group_940199" data-name="Group 940199" transform="translate(0 0)">
                    <g id="Group_940200" data-name="Group 940200">
                      <text id="Μπες_εδώ" data-name="Μπες εδώ" transform="translate(42.53 16.417)" fill="#fff" font-size="18" font-family="CFAstyPlaisio-Regular, CF Asty Plaisio"><tspan x="-43.227" y="0">Μπες εδώ</tspan></text>
                      <g id="Capa_1" transform="translate(98.819 3.555)" clip-path="url(#clip-path-3)">
                        <path id="Path_331971" data-name="Path 331971" d="M31.6,7.581,24.369.256a.717.717,0,0,0-1.02-.08.739.739,0,0,0-.079,1.033.681.681,0,0,0,.079.08l5.993,6.079H.723a.733.733,0,0,0,0,1.465h28.62l-5.993,6.072a.739.739,0,0,0-.079,1.033.717.717,0,0,0,1.019.08.726.726,0,0,0,.079-.08L31.6,8.614a.74.74,0,0,0,0-1.033Z" transform="translate(0 0)" fill="#fff"/>
                      </g>
                    </g>
                  </g>
                </g>
              </g>
            </g>
            <g id="Rectangle_346977" data-name="Rectangle 346977" transform="translate(-0.154 -0.322)" fill="none" stroke="#fff" stroke-width="1">
              <rect width="196" height="50" stroke="none"/>
              <rect x="0.5" y="0.5" width="195" height="49" fill="none"/>
            </g>
          </g>
        </g>
      </g>
    </g>
  </g>
</svg>
