<svg xmlns="http://www.w3.org/2000/svg" xmlns:xlink="http://www.w3.org/1999/xlink" width="101.958" height="91.435" viewBox="0 0 101.958 91.435">
  <defs>
    <clipPath id="clip-path">
      <rect id="Rectangle_9847" data-name="Rectangle 9847" width="97.568" height="86.447" fill="none"/>
    </clipPath>
  </defs>
  <g id="horn" transform="translate(0 5.106) rotate(-3)" clip-path="url(#clip-path)">
    <path id="Path_194928" data-name="Path 194928" d="M16.829,33.97h0a20.392,20.392,0,0,0,.989,2.536,5.134,5.134,0,0,0,3.141,2.738c1.5.6,3.108.771,4.612,1.338a14.111,14.111,0,0,1,3.6,1.981,16.1,16.1,0,0,1,4.917,6.712q.2.474.374.957l4.888,13.327q3.809,10.388,7.618,20.775c1.2,3.267-3.317,7.263-9.135,10.183a43.662,43.662,0,0,1-4.529,1.957,35.879,35.879,0,0,1-11.573,2.386c-3.7.027-6.017-.947-6.7-2.814L9.143,79.987,4.054,66.11a50.939,50.939,0,0,1-2.919-9.089C.444,52.821,2.511,49.7,5,46.506c.357-.457.719-.908,1.014-1.377a3.265,3.265,0,0,0,.451-3.08L5.344,39.031a19.416,19.416,0,0,0-2.524,1.147c4.552-2.316,9.318-4.14,14.01-6.207" transform="translate(49.786 -13.029)" fill="#0abf6a"/>
    <path id="Path_194929" data-name="Path 194929" d="M16.829,33.97h0a20.392,20.392,0,0,0,.989,2.536,5.134,5.134,0,0,0,3.141,2.738c1.5.6,3.108.771,4.612,1.338a14.111,14.111,0,0,1,3.6,1.981,16.1,16.1,0,0,1,4.917,6.712q.2.474.374.957l4.888,13.327q3.809,10.388,7.618,20.775c1.2,3.267-3.317,7.263-9.135,10.183a43.662,43.662,0,0,1-4.529,1.957,35.879,35.879,0,0,1-11.573,2.386c-3.7.027-6.017-.947-6.7-2.814L9.143,79.987,4.054,66.11a50.939,50.939,0,0,1-2.919-9.089C.444,52.821,2.511,49.7,5,46.506c.357-.457.719-.908,1.014-1.377a3.265,3.265,0,0,0,.451-3.08L5.344,39.031a19.416,19.416,0,0,0-2.524,1.147C7.371,37.861,12.137,36.038,16.829,33.97Z" transform="translate(49.786 -13.029)" fill="none" stroke="#000" stroke-linecap="round" stroke-linejoin="round" stroke-width="2"/>
    <path id="Path_194930" data-name="Path 194930" d="M19.743,31.138c-2.221-6.548-2.412-12.949-.5-16.7a6.342,6.342,0,0,1,1.925-2.325,4.882,4.882,0,0,1,.61-.375l.017-.009a4.748,4.748,0,0,1,.744-.3,4.813,4.813,0,0,1,1.439-.216h.013a6.415,6.415,0,0,1,2.542.575.917.917,0,0,1,.348.131c.142.09.292.169.438.254l.028.017.007,0a19.642,19.642,0,0,0,7.114,2.36l.315.043c.388.052.777.094,1.168.13q.458.042.918.07c.194.012.39.022.584.031q.23.01.46.018c.351.012.7.018,1.055.02.171,0,.341,0,.512,0,1.286-.006,2.573-.063,3.847-.144,3.8-.239,7.735-.6,11.554-1.171,2.032-.306,4.042-.7,6.052-1.119,1.7-.356,3.678-.5,5.063-1.648,1.36-1.13,1.346-2.881,2.069-4.342A10.576,10.576,0,0,1,71.694,2.76,10.51,10.51,0,0,1,73,2.011,10.76,10.76,0,0,1,83.84,3.03a10.87,10.87,0,0,1,2.376,14.665A11.02,11.02,0,0,1,80.107,21.8a10.049,10.049,0,0,1-8.034-.914c-1.491-.988-2.4-.223-3.9.438-4.693,2.067-9.458,3.89-14.01,6.207-1.553.764-3.3,1.65-3.574,1.79a30.877,30.877,0,0,0-9.481,7.206,17.469,17.469,0,0,0-3.3,4.824,9.736,9.736,0,0,1-.473,1.121,5.981,5.981,0,0,1-2.58,2.724,4.775,4.775,0,0,1-.717.289,4.851,4.851,0,0,1-1.381.217c-4.555.062-9.989-5.924-12.92-14.564" transform="translate(-1.562 -0.383)" fill="#fdaced"/>
    <path id="Path_194931" data-name="Path 194931" d="M19.743,31.138c-2.221-6.548-2.412-12.949-.5-16.7a6.342,6.342,0,0,1,1.925-2.325,4.882,4.882,0,0,1,.61-.375l.017-.009a4.748,4.748,0,0,1,.744-.3,4.813,4.813,0,0,1,1.439-.216h.013a6.415,6.415,0,0,1,2.542.575.917.917,0,0,1,.348.131c.142.09.292.169.438.254l.028.017.007,0a19.642,19.642,0,0,0,7.114,2.36l.315.043c.388.052.777.094,1.168.13q.458.042.918.07c.194.012.39.022.584.031q.23.01.46.018c.351.012.7.018,1.055.02.171,0,.341,0,.512,0,1.286-.006,2.573-.063,3.847-.144,3.8-.239,7.735-.6,11.554-1.171,2.032-.306,4.042-.7,6.052-1.119,1.7-.356,3.678-.5,5.063-1.648,1.36-1.13,1.346-2.881,2.069-4.342A10.576,10.576,0,0,1,71.694,2.76,10.51,10.51,0,0,1,73,2.011,10.76,10.76,0,0,1,83.84,3.03a10.87,10.87,0,0,1,2.376,14.665A11.02,11.02,0,0,1,80.107,21.8a10.049,10.049,0,0,1-8.034-.914c-1.491-.988-2.4-.223-3.9.438-4.693,2.067-9.458,3.89-14.01,6.207-1.553.764-3.3,1.65-3.574,1.79a30.877,30.877,0,0,0-9.481,7.206,17.469,17.469,0,0,0-3.3,4.824,9.736,9.736,0,0,1-.473,1.121,5.981,5.981,0,0,1-2.58,2.724,4.775,4.775,0,0,1-.717.289,4.851,4.851,0,0,1-1.381.217C28.108,45.765,22.674,39.779,19.743,31.138Z" transform="translate(-1.562 -0.383)" fill="none" stroke="#000" stroke-linecap="round" stroke-linejoin="round" stroke-width="2"/>
    <path id="Path_194932" data-name="Path 194932" d="M115.44,51.815c-4.786,1.49-11.068-4.813-14.3-14.347-2.221-6.547-2.412-12.949-.5-16.7a5.672,5.672,0,0,1,3.3-3.013c3.317-1.035,5.512,1.347,7.377,3.675a37.607,37.607,0,0,1,5.1,8.348,33.6,33.6,0,0,1,2.881,13.793c-.029,2.984-.012,6.391-3.136,7.959a4.7,4.7,0,0,1-.716.289" transform="translate(-82.958 -6.713)"/>
    <path id="Path_194933" data-name="Path 194933" d="M115.44,51.815c-4.786,1.49-11.068-4.813-14.3-14.347-2.221-6.547-2.412-12.949-.5-16.7a5.672,5.672,0,0,1,3.3-3.013c3.317-1.035,5.512,1.347,7.377,3.675a37.607,37.607,0,0,1,5.1,8.348,33.6,33.6,0,0,1,2.881,13.793c-.029,2.984-.012,6.391-3.136,7.959A4.7,4.7,0,0,1,115.44,51.815Z" transform="translate(-82.958 -6.713)" fill="none" stroke="#000" stroke-miterlimit="10" stroke-width="2"/>
    <path id="Path_194934" data-name="Path 194934" d="M18.809,15.678a10.2,10.2,0,0,1,2.92-12.11,10.941,10.941,0,0,1,13.317-.526,10.871,10.871,0,0,1,2.376,14.666,11.021,11.021,0,0,1-6.108,4.106,10.408,10.408,0,0,1-12.5-6.136" transform="translate(47.231 -0.396)" fill="#b0d102"/>
    <path id="Path_194935" data-name="Path 194935" d="M18.809,15.678a10.2,10.2,0,0,1,2.92-12.11,10.941,10.941,0,0,1,13.317-.526,10.871,10.871,0,0,1,2.376,14.666,11.021,11.021,0,0,1-6.108,4.106A10.408,10.408,0,0,1,18.809,15.678Z" transform="translate(47.231 -0.396)" fill="none" stroke="#000" stroke-miterlimit="10" stroke-width="2"/>
    <path id="Path_194936" data-name="Path 194936" d="M58.991,40.752s-3.548,4.009-12.355,4.962" transform="translate(9.827 -15.63)" fill="none" stroke="#000" stroke-miterlimit="10" stroke-width="2"/>
    <path id="Path_194937" data-name="Path 194937" d="M56.318,52.612s-13.379,10.737-31.1,11.559" transform="translate(25.704 -20.179)" fill="none" stroke="#000" stroke-miterlimit="10" stroke-width="2"/>
    <path id="Path_194938" data-name="Path 194938" d="M40.622,95.365s-7.406,8.368-31.864,11.919" transform="translate(51.546 -36.576)" fill="none" stroke="#000" stroke-miterlimit="10" stroke-width="2"/>
    <path id="Path_194939" data-name="Path 194939" d="M27.932,7.934a7.889,7.889,0,0,1,7.012,1.031" transform="translate(45.404 -2.889)" fill="#83d9ff"/>
    <path id="Path_194940" data-name="Path 194940" d="M27.932,7.934a7.889,7.889,0,0,1,7.012,1.031" transform="translate(45.404 -2.889)" fill="none" stroke="#fff5e6" stroke-miterlimit="10" stroke-width="2"/>
    <line id="Line_65" data-name="Line 65" x1="5.534" y2="11.067" transform="translate(15.106 44.588)" fill="#83d9ff"/>
    <line id="Line_66" data-name="Line 66" x1="5.534" y2="11.067" transform="translate(15.106 44.588)" fill="none" stroke="#000" stroke-miterlimit="10" stroke-width="2"/>
    <line id="Line_67" data-name="Line 67" x1="8.994" y2="5.451" transform="translate(6.745 39.21)" fill="#83d9ff"/>
    <line id="Line_68" data-name="Line 68" x1="8.994" y2="5.451" transform="translate(6.745 39.21)" fill="none" stroke="#000" stroke-miterlimit="10" stroke-width="2"/>
    <line id="Line_69" data-name="Line 69" x1="9.778" y2="0.083" transform="translate(2.297 30.897)" fill="#83d9ff"/>
    <line id="Line_70" data-name="Line 70" x1="9.778" y2="0.083" transform="translate(2.297 30.897)" fill="none" stroke="#000" stroke-miterlimit="10" stroke-width="2"/>
    <line id="Line_71" data-name="Line 71" x1="10.997" y1="5.569" transform="translate(0.278 17.179)" fill="#83d9ff"/>
    <line id="Line_72" data-name="Line 72" x1="10.997" y1="5.569" transform="translate(0.278 17.179)" fill="none" stroke="#000" stroke-miterlimit="10" stroke-width="2"/>
  </g>
</svg>
