<svg xmlns="http://www.w3.org/2000/svg" width="110.663" height="83.129" viewBox="0 0 110.663 83.129">
  <g id="shoe" transform="matrix(-0.914, -0.407, 0.407, -0.914, 90.692, 84.142)">
    <g id="Group_939787" data-name="Group 939787" transform="translate(0 0)">
      <path id="Path_263346" data-name="Path 263346" d="M97.068,3.136c5.945,14.091,4.781,26.248-5.6,35.889A1.776,1.776,0,0,1,88.8,38.71c-8.162-12.157-19.187-12.66-32-5.819a1.8,1.8,0,0,1-1.84-.079,142.867,142.867,0,0,0-50.483-21A5.653,5.653,0,0,1,.034,5.652L.317,3.136c33.419-6.763,38.64-.519,61.02-.267C73.651,2.994,79.69-.23,97.068,3.136Z" transform="translate(0 6.348)" fill="#ffcf47" stroke="#000" stroke-width="2"/>
      <path id="Path_263347" data-name="Path 263347" d="M0,3.208l.267-.22A14.106,14.106,0,0,1,9.184,0c.409,0,.8.016,1.227.047,4.828.377,9.656,2.438,13.32,4.183,4.954,2.359,9.861,4.828,14.626,7.219,4.2,2.092,8.54,4.262,12.9,6.369l.456.236-.047.063c-.472.126-.959.252-1.431.393-4.168-2.029-8.335-4.1-12.33-6.118C33.136,10,28.229,7.549,23.291,5.174c-3.6-1.7-8.3-3.727-12.975-4.089A13.309,13.309,0,0,0,1.227,3.57C.834,3.444.409,3.318,0,3.208Z" transform="translate(14.534 17.41)" fill="#f93" stroke="#000" stroke-width="2"/>
      <path id="Path_263348" data-name="Path 263348" d="M0,.267,11.591,0a8.151,8.151,0,0,0,.33,2.689,12.256,12.256,0,0,0,3.995,6.086,24.857,24.857,0,0,0,9.059,4.372c7.848,2.265,16.088,2.925,23.936,5.158,6.873,1.966,14.2,4.1,18.369,9.782-.393.991-1.29,3.318-1.777,4.262-5.347-4.891-12.44-7.816-19.517-9.719-8.54-2.28-17.409-3.35-25.745-6.306C12.3,13.541,4.592,8.744.613,1.4A11.034,11.034,0,0,1,0,.267Z" transform="translate(32.195 5.111)" fill="#72a5df" stroke="#000" stroke-width="2"/>
      <path id="Path_263350" data-name="Path 263350" d="M0,5.872c16.7-8.886,31.155-8.43,42.022,6.511a26.055,26.055,0,0,1-1.966,2,1.787,1.787,0,0,1-2.674-.315c-8.162-12.141-19.171-12.66-32-5.819a1.8,1.8,0,0,1-1.84-.079C2.39,7.382,1.211,6.612,0,5.872Z" transform="translate(51.397 31.007)" fill="#e8e8e8" stroke="#000" stroke-width="2"/>
      <g id="Group_939780" data-name="Group 939780" transform="translate(0.333 0)">
        <g id="Group_939778" data-name="Group 939778" transform="translate(2.815 0)">
          <path id="Path_263351" data-name="Path 263351" d="M0,5.174,1.352,1.368A2.073,2.073,0,0,1,3.3,0h.031a2.073,2.073,0,0,1,1.95,1.368L6.637,5.174Z" transform="translate(40.355 1.84)" fill="#333" stroke="#000" stroke-width="2"/>
          <path id="Path_263352" data-name="Path 263352" d="M0,5.174,1.352,1.368A2.073,2.073,0,0,1,3.3,0h.031a2.073,2.073,0,0,1,1.95,1.368L6.637,5.174Z" transform="translate(32.287 0.676)" fill="#333" stroke="#000" stroke-width="2"/>
          <path id="Path_263353" data-name="Path 263353" d="M0,5.174,1.352,1.368A2.073,2.073,0,0,1,3.3,0h.031a2.073,2.073,0,0,1,1.95,1.368L6.637,5.174Z" transform="translate(24.219 0)" fill="#333" stroke="#000" stroke-width="2"/>
          <path id="Path_263354" data-name="Path 263354" d="M6.637,5.174,5.284,1.368A2.073,2.073,0,0,0,3.334,0H3.3a2.073,2.073,0,0,0-1.95,1.368L0,5.174Z" transform="translate(8.084 0.676)" fill="#333" stroke="#000" stroke-width="2"/>
          <path id="Path_263355" data-name="Path 263355" d="M6.652,5.174,5.3,1.368A2.073,2.073,0,0,0,3.35,0H3.318a2.073,2.073,0,0,0-1.95,1.368L0,5.174Z" transform="translate(0 1.84)" fill="#333" stroke="#000" stroke-width="2"/>
          <path id="Path_263356" data-name="Path 263356" d="M6.637,5.174,5.284,1.368A2.073,2.073,0,0,0,3.334,0H3.3a2.073,2.073,0,0,0-1.95,1.368L0,5.174Z" transform="translate(16.167 0)" fill="#333" stroke="#000" stroke-width="2"/>
        </g>
        <g id="Group_939779" data-name="Group 939779" transform="translate(63.772 1.164)">
          <path id="Path_263357" data-name="Path 263357" d="M0,5.174,1.352,1.368A2.073,2.073,0,0,1,3.3,0h.031a2.073,2.073,0,0,1,1.95,1.368L6.637,5.174Z" transform="translate(24.203 0.676)" fill="#333" stroke="#000" stroke-width="2"/>
          <path id="Path_263358" data-name="Path 263358" d="M0,5.174,1.352,1.368A2.073,2.073,0,0,1,3.3,0h.031a2.073,2.073,0,0,1,1.95,1.368L6.637,5.174Z" transform="translate(16.136 0)" fill="#333" stroke="#000" stroke-width="2"/>
          <path id="Path_263359" data-name="Path 263359" d="M6.637,5.174,5.284,1.368A2.073,2.073,0,0,0,3.334,0H3.3a2.073,2.073,0,0,0-1.95,1.368L0,5.174Z" transform="translate(0 0.676)" fill="#333" stroke="#000" stroke-width="2"/>
          <path id="Path_263360" data-name="Path 263360" d="M6.637,5.174,5.284,1.368A2.073,2.073,0,0,0,3.334,0H3.3a2.073,2.073,0,0,0-1.95,1.368L0,5.174Z" transform="translate(8.068 0)" fill="#333" stroke="#000" stroke-width="2"/>
        </g>
        <path id="Path_263361" data-name="Path 263361" d="M96.735,7.077A4.669,4.669,0,0,0,92.8,2.454c-14.437-2.186-20.46.535-31.784.409-21.483-.236-27.144-5.992-57.1-.488A4.774,4.774,0,0,0,0,7.077C33.419.315,38.64,6.558,61.02,6.81,73.318,6.936,79.357,3.712,96.735,7.077Z" transform="translate(0 2.406)" fill="#333" stroke="#000" stroke-width="2"/>
        <path id="Path_263362" data-name="Path 263362" d="M0,1.18a1.172,1.172,0,1,1,2.343,0A1.172,1.172,0,1,1,0,1.18Z" transform="translate(49.256 31.784)" fill="#333" stroke="#000" stroke-width="2"/>
        <path id="Path_263363" data-name="Path 263363" d="M0,1.18a1.172,1.172,0,1,1,2.343,0A1.172,1.172,0,1,1,0,1.18Z" transform="translate(44.223 28.89)" fill="#333" stroke="#000" stroke-width="2"/>
        <path id="Path_263364" data-name="Path 263364" d="M0,1.18a1.172,1.172,0,1,1,2.343,0A1.172,1.172,0,1,1,0,1.18Z" transform="translate(38.955 26.468)" fill="#333" stroke="#000" stroke-width="2"/>
        <path id="Path_263365" data-name="Path 263365" d="M0,1.18a1.172,1.172,0,1,1,2.343,0A1.172,1.172,0,1,1,0,1.18Z" transform="translate(33.922 23.575)" fill="#333" stroke="#000" stroke-width="2"/>
        <path id="Path_263366" data-name="Path 263366" d="M0,1.18a1.172,1.172,0,1,1,2.343,0,1.168,1.168,0,0,1-1.18,1.18A1.145,1.145,0,0,1,0,1.18Z" transform="translate(28.418 21.609)" fill="#333" stroke="#000" stroke-width="2"/>
        <path id="Path_263367" data-name="Path 263367" d="M0,1.18a1.172,1.172,0,1,1,2.343,0,1.168,1.168,0,0,1-1.18,1.18A1.155,1.155,0,0,1,0,1.18Z" transform="translate(22.646 19.957)" fill="#333" stroke="#000" stroke-width="2"/>
      </g>
      <g id="Group_939781" data-name="Group 939781" transform="translate(22.468 20.618)">
        <path id="Path_263368" data-name="Path 263368" d="M1.691,0a.543.543,0,0,1,.2.047.515.515,0,0,1,.283.676L1,3.554a.515.515,0,0,1-.676.283A.515.515,0,0,1,.04,3.161L1.219.33A.491.491,0,0,1,1.691,0Z" transform="translate(0 0)" fill="#494949" stroke="#000" stroke-width="2"/>
      </g>
      <g id="Group_939782" data-name="Group 939782" transform="translate(28.066 22.285)">
        <path id="Path_263369" data-name="Path 263369" d="M1.864,0a.789.789,0,0,1,.189.031.515.515,0,0,1,.283.676L1,3.995a.515.515,0,0,1-.676.283A.515.515,0,0,1,.04,3.6L1.377.315A.513.513,0,0,1,1.864,0Z" transform="translate(0)" fill="#494949" stroke="#000" stroke-width="2"/>
      </g>
      <g id="Group_939783" data-name="Group 939783" transform="translate(33.379 24.235)">
        <path id="Path_263370" data-name="Path 263370" d="M2.04,0a.484.484,0,0,1,.2.047.513.513,0,0,1,.267.676L.986,4.278a.5.5,0,0,1-.676.267.513.513,0,0,1-.267-.676L1.568.315A.523.523,0,0,1,2.04,0Z" transform="translate(0 0)" fill="#494949" stroke="#000" stroke-width="2"/>
      </g>
      <g id="Group_939784" data-name="Group 939784" transform="translate(38.418 27.129)">
        <path id="Path_263371" data-name="Path 263371" d="M2.033,0a.555.555,0,0,1,.22.047.511.511,0,0,1,.252.692L1,4.089A.511.511,0,0,1,.3,4.341a.511.511,0,0,1-.252-.692L1.562.3A.534.534,0,0,1,2.033,0Z" transform="translate(0 0)" fill="#494949" stroke="#000" stroke-width="2"/>
      </g>
      <g id="Group_939785" data-name="Group 939785" transform="translate(43.075 29.551)">
        <path id="Path_263372" data-name="Path 263372" d="M2.645,0a.641.641,0,0,1,.283.079.512.512,0,0,1,.157.708L.947,4.152A.513.513,0,1,1,.082,3.6L2.221.236A.481.481,0,0,1,2.645,0Z" transform="translate(0 0)" fill="#494949" stroke="#000" stroke-width="2"/>
      </g>
      <g id="Group_939786" data-name="Group 939786" transform="translate(47.582 32.445)">
        <path id="Path_263373" data-name="Path 263373" d="M3.171,0a.518.518,0,0,1,.3.094.509.509,0,0,1,.11.723L.937,4.5a.526.526,0,0,1-.723.126A.509.509,0,0,1,.1,3.9L2.746.22A.5.5,0,0,1,3.171,0Z" transform="translate(0 0)" fill="#494949" stroke="#000" stroke-width="2"/>
      </g>
    </g>
    <path id="Path_263376" data-name="Path 263376" d="M88.646,3.527Q76.568,4.8,64.459,5.163c-8.084.267-16.2.157-24.3-.362C32.046,4.282,24.057,3.04,16.1,2.458c-2-.157-3.979-.22-5.976-.252a45.546,45.546,0,0,0-5.9.189,5.139,5.139,0,0,0-2.453.928A2.219,2.219,0,0,0,1.017,5.54c.346,1.84,2.3,2.972,4.089,3.79A12.892,12.892,0,0,1,2.26,8.214,4.624,4.624,0,0,1,.184,5.776,3.226,3.226,0,0,1,.939,2.442,6.333,6.333,0,0,1,3.911.885,62.458,62.458,0,0,1,16.193,0C24.371.1,32.376,1.215,40.365,1.671c8,.566,16.025.818,24.078,1.054,8.052.2,16.12.346,24.2.8Z" transform="translate(4.238 7.167)" stroke="#000" stroke-width="2" opacity="0.1"/>
  </g>
</svg>
