<svg xmlns="http://www.w3.org/2000/svg" width="174.979" height="93.512" viewBox="0 0 174.979 93.512">
  <g id="tag2_mob" transform="translate(-1867.4 -345.19)">
    <g id="Group_988194" data-name="Group 988194" transform="translate(1867.721 345.19)">
      <g id="Group_943390" data-name="Group 943390" transform="translate(0 0)">
        <g id="Group_940518" data-name="Group 940518" transform="translate(0 0)">
          <rect id="Rectangle_347127" data-name="Rectangle 347127" width="174.979" height="93.512" rx="10" transform="translate(-0.321)" fill="#f4ff0d"/>
          <g id="Group_940517" data-name="Group 940517" transform="translate(21.705 15.579)">
            <g id="Group_940543" data-name="Group 940543" transform="translate(0 0)">
              <text id="Αποκλειστική_εγγύηση" data-name="Αποκλειστική εγγύηση" transform="translate(65.974 12)" fill="#1d1d1b" font-size="15" font-family="CFAstyPlaisio-Bold, CF Asty Plaisio" font-weight="700" letter-spacing="-0.02em"><tspan x="-78.833" y="0">Αποκλειστική εγγύηση</tspan></text>
              <g id="_0_pixel" data-name="0 pixel" transform="translate(27.974 22.443)">
                <rect id="Rectangle_342045" data-name="Rectangle 342045" width="4.606" height="4.606" transform="translate(21.389 3.19)" fill="#e20613"/>
                <rect id="Rectangle_342046" data-name="Rectangle 342046" width="4.1" height="4.1" transform="translate(10.435 6.674)" fill="#e20613"/>
                <rect id="Rectangle_342047" data-name="Rectangle 342047" width="3.347" height="3.347" transform="translate(25.742 9.21)" fill="#e20613"/>
                <rect id="Rectangle_342048" data-name="Rectangle 342048" width="2.761" height="2.761" transform="translate(17.392 4.003)" fill="#e20613"/>
                <rect id="Rectangle_342049" data-name="Rectangle 342049" width="2.978" height="2.978" transform="translate(28.161 2.514)" fill="#e20613"/>
                <rect id="Rectangle_342050" data-name="Rectangle 342050" width="2.05" height="2.05" transform="translate(23.481)" fill="#e20613"/>
                <g id="Group_826011" data-name="Group 826011" transform="translate(0 4.679)">
                  <g id="Group_826013" data-name="Group 826013">
                    <path id="Path_257190" data-name="Path 257190" d="M131.534,51.581v1.456a2.9,2.9,0,0,1,1.149-1.366,3.243,3.243,0,0,1,1.737-.472,3.016,3.016,0,0,1,2.107.753,3.7,3.7,0,0,1,1.111,1.928,15.956,15.956,0,0,1,.332,2.375q.077,1.2.077,2.426,0,.741-.038,1.507t-.089,1.506a10.651,10.651,0,0,1-.268,1.558,4.241,4.241,0,0,1-.588,1.354,3.143,3.143,0,0,1-1.021.958,3.1,3.1,0,0,1-1.6.37,2.869,2.869,0,0,1-1.6-.409,4.833,4.833,0,0,1-1.187-1.149V78.7h-3.218V51.581Zm.179,9.78a3.318,3.318,0,0,0,.115.651,1.864,1.864,0,0,0,.281.587,1.486,1.486,0,0,0,.485.434,1.348,1.348,0,0,0,.677.166,1.121,1.121,0,0,0,.83-.294,1.8,1.8,0,0,0,.434-.715,3.809,3.809,0,0,0,.179-.907q.038-.485.038-.868v.128a2.979,2.979,0,0,0,.025-.409v-2.2q0-.306-.025-.613v.153c0-.323-.009-.638-.026-.945s-.043-.613-.077-.919a2.827,2.827,0,0,0-.357-1.2,1.082,1.082,0,0,0-1.022-.536,1.312,1.312,0,0,0-1.251.638,2.824,2.824,0,0,0-.357,1.4q-.051.69-.064,1.366t-.013,1.341q.025.69.051,1.366t.077,1.366" transform="translate(-96.562 -43.169)" fill="#1d1d1b"/>
                    <path id="Path_257191" data-name="Path 257191" d="M180.091,36.928H176.9V34.017h3.192Zm0,15.7H176.9V38.665h3.192Z" transform="translate(-132.99 -30.252)" fill="#1d1d1b"/>
                    <path id="Path_257192" data-name="Path 257192" d="M196.188,52.741h3.7l1.481,3.473,1.532-3.473h3.549L202.98,59.56l3.524,7.15h-3.575l-1.634-3.754-1.583,3.754h-3.677l3.677-7.125Z" transform="translate(-147.376 -44.329)" fill="#1d1d1b"/>
                    <path id="Path_257193" data-name="Path 257193" d="M252.422,62.907a3.948,3.948,0,0,1-.779,1.622,3.637,3.637,0,0,1-1.443,1.034,5.757,5.757,0,0,1-2.2.37,4.865,4.865,0,0,1-3.486-1.175,4.964,4.964,0,0,1-1.366-3.473q-.052-.766-.077-1.532t-.026-1.532a26.49,26.49,0,0,1,.128-2.669,6.223,6.223,0,0,1,.625-2.234,3.726,3.726,0,0,1,1.494-1.545A5.42,5.42,0,0,1,248,51.2a4.608,4.608,0,0,1,3.409,1.239,4.778,4.778,0,0,1,1.29,3.409q.025.818.051,1.6t.025,1.6h-6.359q0,.23-.013.459t-.013.485q0,.255.013.485c.008.153.013.315.013.485q.025.383.089.83a3.582,3.582,0,0,0,.217.83,1.633,1.633,0,0,0,.447.638,1.184,1.184,0,0,0,.8.255,1.466,1.466,0,0,0,.919-.294,1.408,1.408,0,0,0,.511-.8,4.689,4.689,0,0,0,.179-.817,6.577,6.577,0,0,0,.051-.817h3.013a9.148,9.148,0,0,1-.23,2.132m-2.937-7.112a4.855,4.855,0,0,0-.064-.792,2.061,2.061,0,0,0-.23-.677,1.263,1.263,0,0,0-.472-.472,1.562,1.562,0,0,0-.792-.179,1.578,1.578,0,0,0-.907.268,1.175,1.175,0,0,0-.5.779,2.534,2.534,0,0,0-.077.46q-.026.281-.051.575t-.025.574v.434h3.115Z" transform="translate(-182.721 -43.169)" fill="#1d1d1b"/>
                    <rect id="Rectangle_342051" data-name="Rectangle 342051" width="3.192" height="18.616" transform="translate(72.458 3.765)" fill="#1d1d1b"/>
                    <line id="Line_1095" data-name="Line 1095" x2="21.783" y2="35.37" transform="translate(2.76 0)" fill="none" stroke="#e20613" stroke-miterlimit="10" stroke-width="0.518"/>
                    <path id="Path_257194" data-name="Path 257194" d="M20.714,42.752V40.726H18.255c.026.152.051.3.073.456q.178,1.257.23,2.4t.051,1.919q0,.778-.051,1.919t-.23,2.377a16.167,16.167,0,0,1-.562,2.468,9.463,9.463,0,0,1-1,2.216,5.362,5.362,0,0,1-1.508,1.6,3.734,3.734,0,0,1-2.173.617,3.437,3.437,0,0,1-2.045-.617,5.8,5.8,0,0,1-1.508-1.6,8.84,8.84,0,0,1-1.022-2.216A21.762,21.762,0,0,1,7.9,49.8a20.5,20.5,0,0,1-.307-2.377q-.076-1.142-.076-1.919t.076-1.919a21.331,21.331,0,0,1,.307-2.4,22.517,22.517,0,0,1,.614-2.513,8.772,8.772,0,0,1,1.022-2.239,5.815,5.815,0,0,1,1.508-1.6,3.439,3.439,0,0,1,2.045-.617,3.736,3.736,0,0,1,2.173.617,5.144,5.144,0,0,1,.793.678V34.3l-.823.009-.014-.968-5.475-.024V29.176a10.238,10.238,0,0,0-3.224,1.2,11.473,11.473,0,0,0-3.987,3.885A15.35,15.35,0,0,0,.537,39.606a33.027,33.027,0,0,0,0,11.859,15.108,15.108,0,0,0,1.994,5.3,11.154,11.154,0,0,0,3.987,3.816,13.033,13.033,0,0,0,6.569,1.462,13.064,13.064,0,0,0,6.544-1.462,10.89,10.89,0,0,0,3.988-3.816,15.429,15.429,0,0,0,1.968-5.3,33.214,33.214,0,0,0,.537-5.964q0-1.369-.118-2.748Z" transform="translate(0 -26.613)" fill="#e20613"/>
                    <path id="Path_257195" data-name="Path 257195" d="M68.07,35.7v-1h.021V31.933H64.322V35.7Z" transform="translate(-48.356 -28.686)" fill="#e20613"/>
                    <rect id="Rectangle_342052" data-name="Rectangle 342052" width="3.768" height="1.807" transform="translate(20.174 4.212)" fill="#e20613"/>
                    <rect id="Rectangle_342053" data-name="Rectangle 342053" width="3.768" height="1.588" transform="translate(20.174 6.392)" fill="#e20613"/>
                    <path id="Path_257196" data-name="Path 257196" d="M67.893,56.759v3.768h3.768v-2.18h-.907V56.759Z" transform="translate(-51.041 -47.349)" fill="#e20613"/>
                    <rect id="Rectangle_342054" data-name="Rectangle 342054" width="0.533" height="1.215" transform="translate(20.087 9.41)" fill="#e20613"/>
                    <path id="Path_257197" data-name="Path 257197" d="M68.336,40.444h.021v-.875h-3.68v1.873h3.659Z" transform="translate(-48.623 -34.426)" fill="#e20613"/>
                    <rect id="Rectangle_342055" data-name="Rectangle 342055" width="0.067" height="0.765" transform="translate(20.087 8.312)" fill="#e20613"/>
                    <rect id="Rectangle_342056" data-name="Rectangle 342056" width="4.606" height="4.419" transform="translate(19.9 6.205)" fill="#e20613"/>
                    <rect id="Rectangle_342057" data-name="Rectangle 342057" width="4.1" height="3.914" transform="translate(21.642 10.998)" fill="#e20613"/>
                    <rect id="Rectangle_342058" data-name="Rectangle 342058" width="2.225" height="1.718" transform="translate(17.357 7.359)" fill="#e20613"/>
                    <path id="Path_257198" data-name="Path 257198" d="M50.3,18.849v1.612h2.434v2.994h.782V21.832h1.318V18.849Z" transform="translate(-37.814 -18.849)" fill="#e20613"/>
                    <path id="Path_257199" data-name="Path 257199" d="M153.362,128.615a.986.986,0,0,1-.306-.646,1.922,1.922,0,0,1-.708.593,2.1,2.1,0,0,1-.967.229,1.661,1.661,0,0,1-1.2-.469,1.694,1.694,0,0,1-.488-1.282,2.638,2.638,0,0,1,.153-.89,2.367,2.367,0,0,1,.449-.77,2.23,2.23,0,0,1,.728-.545,2.258,2.258,0,0,1,.986-.206,1.918,1.918,0,0,1,.832.182,1.216,1.216,0,0,1,.574.555l.163-.641h.7l-.641,2.574q-.029.134-.053.263a1.284,1.284,0,0,0-.024.235.653.653,0,0,0,.172.469.679.679,0,0,0,.517.182,1.036,1.036,0,0,0,.627-.192,1.569,1.569,0,0,0,.436-.488,2.425,2.425,0,0,0,.258-.655,2.974,2.974,0,0,0,.086-.694,2.9,2.9,0,0,0-.263-1.206,3.308,3.308,0,0,0-.732-1.033,3.623,3.623,0,0,0-1.12-.723,3.824,3.824,0,0,0-2.895.024,3.914,3.914,0,0,0-1.234.818,4.043,4.043,0,0,0-.852,1.23,3.833,3.833,0,0,0-.052,2.942,3.389,3.389,0,0,0,1.9,1.9,3.877,3.877,0,0,0,1.488.277,4.365,4.365,0,0,0,1.244-.163,5.386,5.386,0,0,0,1.091-.469l.22.364a5.716,5.716,0,0,1-1.2.527,4.64,4.64,0,0,1-1.368.191,4.247,4.247,0,0,1-1.656-.316,4.014,4.014,0,0,1-1.306-.866,3.957,3.957,0,0,1-.856-1.282,4.012,4.012,0,0,1-.306-1.565,4.1,4.1,0,0,1,.33-1.612,4.478,4.478,0,0,1,.914-1.383,4.6,4.6,0,0,1,1.373-.971,4.011,4.011,0,0,1,1.718-.368,4.307,4.307,0,0,1,1.612.3,4.055,4.055,0,0,1,1.282.8A3.754,3.754,0,0,1,155.84,125a3.282,3.282,0,0,1,.306,1.4,3.419,3.419,0,0,1-.115.856,2.61,2.61,0,0,1-.354.8,2.012,2.012,0,0,1-.612.593,1.62,1.62,0,0,1-.88.234,1.129,1.129,0,0,1-.823-.273m-.564-3.067a1.22,1.22,0,0,0-.766-.258,1.409,1.409,0,0,0-1.139.5,1.807,1.807,0,0,0-.421,1.2,1.4,1.4,0,0,0,.244.814.869.869,0,0,0,.77.354,1.608,1.608,0,0,0,.976-.315,1.788,1.788,0,0,0,.613-1.072,2.057,2.057,0,0,0,.058-.459.908.908,0,0,0-.335-.765" transform="translate(-111.087 -96.949)" fill="#e20613"/>
                    <path id="Path_257200" data-name="Path 257200" d="M188.443,135.138a1.886,1.886,0,0,1-.67-.579h-.029v2.526h-.852v-6.622h.852v.737h.029a2.122,2.122,0,0,1,.7-.6,2.048,2.048,0,0,1,1-.23,2.29,2.29,0,0,1,1.612.636,2.852,2.852,0,0,1-.009,3.718,2.327,2.327,0,0,1-1.632.641,2.083,2.083,0,0,1-1-.225m1.971-.99a1.98,1.98,0,0,0,0-2.565,1.555,1.555,0,0,0-1.105-.45,1.61,1.61,0,0,0-1.115.45,1.66,1.66,0,0,0-.493,1.292,1.635,1.635,0,0,0,.493,1.273,1.609,1.609,0,0,0,1.115.45,1.55,1.55,0,0,0,1.11-.45" transform="translate(-140.503 -102.687)" fill="#e20613"/>
                    <rect id="Rectangle_342059" data-name="Rectangle 342059" width="0.852" height="6.699" transform="translate(52.534 25.882)" fill="#e20613"/>
                    <path id="Path_257201" data-name="Path 257201" d="M222.611,132.363a5.483,5.483,0,0,1,.584.1v-.191a1.094,1.094,0,0,0-.349-.909,1.412,1.412,0,0,0-.9-.278,2.015,2.015,0,0,0-.717.12,2.911,2.911,0,0,0-.661.368l-.4-.6a3.771,3.771,0,0,1,.8-.43,2.619,2.619,0,0,1,.971-.172,2.474,2.474,0,0,1,1.5.435,1.668,1.668,0,0,1,.593,1.44v3.024h-.832v-.689h-.029a2.11,2.11,0,0,1-.641.546,1.972,1.972,0,0,1-1,.239,1.888,1.888,0,0,1-1.153-.349,1.477,1.477,0,0,1,.139-2.282,2.5,2.5,0,0,1,1.426-.411,5.5,5.5,0,0,1,.679.043m.584.732a4.42,4.42,0,0,0-.522-.105,5,5,0,0,0-.674-.038,1.563,1.563,0,0,0-.9.249.787.787,0,0,0-.368.689q0,.823,1,.823a1.558,1.558,0,0,0,1-.373,1.076,1.076,0,0,0,.46-.842Z" transform="translate(-165.312 -102.687)" fill="#e20613"/>
                    <path id="Path_257202" data-name="Path 257202" d="M243.182,124a.649.649,0,0,1-.88,0,.555.555,0,0,1,0-.785.649.649,0,0,1,.88,0,.555.555,0,0,1,0,.785m-.88.957h.861v4.8H242.3Z" transform="translate(-182.036 -97.18)" fill="#e20613"/>
                    <path id="Path_257203" data-name="Path 257203" d="M252.04,135.171a3.214,3.214,0,0,1-.842-.545l.517-.584a2.752,2.752,0,0,0,.641.464,1.5,1.5,0,0,0,.68.158,1.222,1.222,0,0,0,.66-.163.522.522,0,0,0,.258-.469.571.571,0,0,0-.273-.517,3.587,3.587,0,0,0-.761-.335q-.258-.086-.522-.2a1.983,1.983,0,0,1-.474-.278,1.387,1.387,0,0,1-.345-.4,1.129,1.129,0,0,1-.134-.569,1.189,1.189,0,0,1,.479-1.009,1.953,1.953,0,0,1,1.206-.359,2.481,2.481,0,0,1,1.636.555l-.5.564a1.61,1.61,0,0,0-1.129-.411.95.95,0,0,0-.6.167.54.54,0,0,0-.211.445.582.582,0,0,0,.364.569,7.673,7.673,0,0,0,.727.292,3.748,3.748,0,0,1,.99.5,1.068,1.068,0,0,1,.426.928,1.159,1.159,0,0,1-.536,1.038,2.277,2.277,0,0,1-1.273.349,2.447,2.447,0,0,1-.986-.191" transform="translate(-188.847 -102.687)" fill="#e20613"/>
                    <path id="Path_257204" data-name="Path 257204" d="M271.671,124a.649.649,0,0,1-.88,0,.555.555,0,0,1,0-.785.649.649,0,0,1,.88,0,.554.554,0,0,1,0,.785m-.88.957h.861v4.8h-.861Z" transform="translate(-203.454 -97.18)" fill="#e20613"/>
                    <path id="Path_257205" data-name="Path 257205" d="M280.9,134.641a2.625,2.625,0,1,1,1.8.723,2.43,2.43,0,0,1-1.8-.723m2.995-.55a1.862,1.862,0,0,0-.009-2.45,1.533,1.533,0,0,0-1.182-.507,1.513,1.513,0,0,0-1.182.507,1.772,1.772,0,0,0-.454,1.225,1.732,1.732,0,0,0,.464,1.22,1.646,1.646,0,0,0,2.364,0" transform="translate(-210.642 -102.687)" fill="#e20613"/>
                  </g>
                </g>
              </g>
            </g>
          </g>
        </g>
      </g>
    </g>
  </g>
</svg>
