<svg xmlns="http://www.w3.org/2000/svg" width="290" height="150" viewBox="0 0 290 150">
  <g id="tag2" transform="translate(0 0.079)">
    <g id="Group_943390" data-name="Group 943390" transform="translate(0 0)">
      <g id="Group_940518" data-name="Group 940518" transform="translate(0)">
        <path id="Rectangle_347127" data-name="Rectangle 347127" d="M15,0H290a0,0,0,0,1,0,0V150a0,0,0,0,1,0,0H15A15,15,0,0,1,0,135V15A15,15,0,0,1,15,0Z" transform="translate(0 -0.079)" fill="#f4ff0d"/>
        <g id="Group_940517" data-name="Group 940517" transform="translate(34.953 24.797)">
          <g id="Group_940543" data-name="Group 940543" transform="translate(0 0)">
            <g id="Group_988205" data-name="Group 988205" transform="translate(5 1.124)">
              <text id="Αποκλειστική_εγγύηση" data-name="Αποκλειστική εγγύηση" transform="translate(105.047 19)" fill="#1d1d1b" font-size="21" font-family="CFAstyPlaisio-Bold, CF Asty Plaisio" font-weight="700" letter-spacing="-0.02em"><tspan x="-110.366" y="0">Αποκλειστική εγγύηση</tspan></text>
              <g id="_0_pixel" data-name="0 pixel" transform="translate(45.047 36.142)">
                <rect id="Rectangle_342045" data-name="Rectangle 342045" width="7.31" height="7.309" transform="translate(33.944 5.062)" fill="#e20613"/>
                <rect id="Rectangle_342046" data-name="Rectangle 342046" width="6.507" height="6.507" transform="translate(16.56 10.592)" fill="#e20613"/>
                <rect id="Rectangle_342047" data-name="Rectangle 342047" width="5.312" height="5.312" transform="translate(40.852 14.616)" fill="#e20613"/>
                <rect id="Rectangle_342048" data-name="Rectangle 342048" width="4.382" height="4.382" transform="translate(27.6 6.353)" fill="#e20613"/>
                <rect id="Rectangle_342049" data-name="Rectangle 342049" width="4.727" height="4.727" transform="translate(44.691 3.99)" fill="#e20613"/>
                <rect id="Rectangle_342050" data-name="Rectangle 342050" width="3.253" height="3.253" transform="translate(37.264)" fill="#e20613"/>
                <g id="Group_826011" data-name="Group 826011" transform="translate(0 7.425)">
                  <g id="Group_826013" data-name="Group 826013">
                    <path id="Path_257190" data-name="Path 257190" d="M133.348,51.806v2.31a4.6,4.6,0,0,1,1.823-2.168,5.146,5.146,0,0,1,2.756-.75,4.786,4.786,0,0,1,3.344,1.2,5.87,5.87,0,0,1,1.763,3.06,25.321,25.321,0,0,1,.527,3.769q.122,1.906.122,3.85,0,1.175-.061,2.391t-.142,2.391a16.906,16.906,0,0,1-.425,2.472,6.731,6.731,0,0,1-.932,2.148,4.988,4.988,0,0,1-1.621,1.52,4.922,4.922,0,0,1-2.533.588,4.553,4.553,0,0,1-2.533-.648,7.67,7.67,0,0,1-1.884-1.824V94.843h-5.106V51.806Zm.284,15.521a5.264,5.264,0,0,0,.182,1.034,2.958,2.958,0,0,0,.446.932,2.359,2.359,0,0,0,.77.689,2.139,2.139,0,0,0,1.074.263,1.779,1.779,0,0,0,1.317-.466,2.856,2.856,0,0,0,.689-1.134,6.045,6.045,0,0,0,.284-1.439q.061-.769.061-1.378v.2a4.728,4.728,0,0,0,.04-.648V61.9q0-.486-.04-.973v.243c0-.512-.014-1.013-.041-1.5s-.068-.973-.122-1.459a4.486,4.486,0,0,0-.567-1.9,1.718,1.718,0,0,0-1.621-.851,2.082,2.082,0,0,0-1.986,1.013,4.481,4.481,0,0,0-.567,2.229q-.082,1.094-.1,2.168t-.02,2.128q.04,1.094.081,2.168t.122,2.168" transform="translate(-77.848 -38.455)" fill="#1d1d1b"/>
                    <path id="Path_257191" data-name="Path 257191" d="M181.965,38.637H176.9v-4.62h5.066Zm0,24.923H176.9V41.393h5.066Z" transform="translate(-107.216 -28.042)" fill="#1d1d1b"/>
                    <path id="Path_257192" data-name="Path 257192" d="M196.277,52.741h5.876l2.351,5.511,2.432-5.511h5.633l-5.512,10.82,5.593,11.347h-5.674l-2.594-5.957-2.513,5.957h-5.836L201.87,63.6Z" transform="translate(-118.814 -39.391)" fill="#1d1d1b"/>
                    <path id="Path_257193" data-name="Path 257193" d="M257.923,69.779a6.266,6.266,0,0,1-1.236,2.573,5.771,5.771,0,0,1-2.289,1.641,9.136,9.136,0,0,1-3.485.587,7.721,7.721,0,0,1-5.532-1.864,7.878,7.878,0,0,1-2.168-5.512q-.082-1.216-.122-2.432t-.041-2.431a42.047,42.047,0,0,1,.2-4.235,9.876,9.876,0,0,1,.993-3.546,5.913,5.913,0,0,1,2.371-2.452,8.6,8.6,0,0,1,4.3-.912,7.312,7.312,0,0,1,5.41,1.966,7.583,7.583,0,0,1,2.047,5.41q.04,1.3.081,2.532t.04,2.533H248.4q0,.365-.02.729t-.02.77q0,.405.02.77c.013.243.02.5.02.77q.04.607.142,1.317a5.685,5.685,0,0,0,.345,1.317,2.592,2.592,0,0,0,.709,1.013,1.878,1.878,0,0,0,1.277.405,2.327,2.327,0,0,0,1.459-.466,2.234,2.234,0,0,0,.81-1.277,7.441,7.441,0,0,0,.284-1.3,10.44,10.44,0,0,0,.081-1.3h4.782a14.518,14.518,0,0,1-.365,3.384m-4.66-11.286a7.706,7.706,0,0,0-.1-1.257,3.27,3.27,0,0,0-.365-1.074,2,2,0,0,0-.75-.75,2.478,2.478,0,0,0-1.257-.284,2.5,2.5,0,0,0-1.439.425,1.865,1.865,0,0,0-.79,1.236,4.024,4.024,0,0,0-.122.73q-.041.446-.081.912t-.04.912v.689h4.944Z" transform="translate(-147.31 -38.455)" fill="#1d1d1b"/>
                    <rect id="Rectangle_342051" data-name="Rectangle 342051" width="5.066" height="29.543" transform="translate(114.99 5.975)" fill="#1d1d1b"/>
                    <line id="Line_1095" data-name="Line 1095" x2="34.569" y2="56.131" transform="translate(4.38 0)" fill="none" stroke="#e20613" stroke-miterlimit="10" stroke-width="0.518"/>
                    <path id="Path_257194" data-name="Path 257194" d="M32.872,50.721V47.506h-3.9c.042.241.081.482.115.723q.283,2,.365,3.808t.082,3.046q0,1.234-.082,3.046T29.085,61.9a25.657,25.657,0,0,1-.893,3.916,15.018,15.018,0,0,1-1.582,3.517,8.51,8.51,0,0,1-2.393,2.538,5.926,5.926,0,0,1-3.448.979,5.455,5.455,0,0,1-3.245-.979,9.207,9.207,0,0,1-2.393-2.538,14.029,14.029,0,0,1-1.623-3.517,34.536,34.536,0,0,1-.974-3.916,32.528,32.528,0,0,1-.487-3.772q-.121-1.812-.121-3.046t.121-3.046a33.851,33.851,0,0,1,.487-3.808,35.733,35.733,0,0,1,.974-3.989,13.921,13.921,0,0,1,1.623-3.554,9.228,9.228,0,0,1,2.393-2.538,5.457,5.457,0,0,1,3.245-.979,5.929,5.929,0,0,1,3.448.979,8.164,8.164,0,0,1,1.259,1.076V37.315l-1.305.014-.022-1.535-8.689-.038v-6.58a16.248,16.248,0,0,0-5.117,1.9,18.207,18.207,0,0,0-6.328,6.165A24.36,24.36,0,0,0,.852,45.727a52.413,52.413,0,0,0,0,18.82,23.976,23.976,0,0,0,3.164,8.413,17.7,17.7,0,0,0,6.328,6.056,20.682,20.682,0,0,0,10.425,2.321,20.732,20.732,0,0,0,10.385-2.321,17.282,17.282,0,0,0,6.328-6.056,24.486,24.486,0,0,0,3.123-8.413,52.71,52.71,0,0,0,.852-9.465q0-2.173-.188-4.362Z" transform="translate(0 -25.108)" fill="#e20613"/>
                    <path id="Path_257195" data-name="Path 257195" d="M70.269,37.913V36.33H70.3v-4.4h-5.98v5.98Z" transform="translate(-38.985 -26.779)" fill="#e20613"/>
                    <rect id="Rectangle_342052" data-name="Rectangle 342052" width="5.98" height="2.867" transform="translate(32.016 6.684)" fill="#e20613"/>
                    <rect id="Rectangle_342053" data-name="Rectangle 342053" width="5.98" height="2.52" transform="translate(32.016 10.143)" fill="#e20613"/>
                    <path id="Path_257196" data-name="Path 257196" d="M67.893,56.759v5.98h5.98V59.279H72.433v-2.52Z" transform="translate(-41.149 -41.826)" fill="#e20613"/>
                    <rect id="Rectangle_342054" data-name="Rectangle 342054" width="0.846" height="1.927" transform="translate(31.877 14.933)" fill="#e20613"/>
                    <path id="Path_257197" data-name="Path 257197" d="M70.484,40.958h.033V39.569h-5.84v2.972h5.807Z" transform="translate(-39.199 -31.407)" fill="#e20613"/>
                    <rect id="Rectangle_342055" data-name="Rectangle 342055" width="0.106" height="1.214" transform="translate(31.877 13.191)" fill="#e20613"/>
                    <rect id="Rectangle_342056" data-name="Rectangle 342056" width="7.31" height="7.013" transform="translate(31.58 9.847)" fill="#e20613"/>
                    <rect id="Rectangle_342057" data-name="Rectangle 342057" width="6.507" height="6.211" transform="translate(34.345 17.453)" fill="#e20613"/>
                    <rect id="Rectangle_342058" data-name="Rectangle 342058" width="3.531" height="2.727" transform="translate(27.546 11.679)" fill="#e20613"/>
                    <path id="Path_257198" data-name="Path 257198" d="M50.3,18.849v2.558h3.862v4.752H55.4V23.583h2.092V18.849Z" transform="translate(-30.486 -18.849)" fill="#e20613"/>
                    <path id="Path_257199" data-name="Path 257199" d="M156.648,132.067a1.564,1.564,0,0,1-.486-1.025,3.051,3.051,0,0,1-1.124.942,3.329,3.329,0,0,1-1.534.364,2.636,2.636,0,0,1-1.9-.744,2.688,2.688,0,0,1-.775-2.035,4.186,4.186,0,0,1,.243-1.413,3.757,3.757,0,0,1,.713-1.223,3.538,3.538,0,0,1,1.155-.865,3.583,3.583,0,0,1,1.564-.327,3.044,3.044,0,0,1,1.321.288,1.929,1.929,0,0,1,.912.881l.258-1.018h1.109l-1.018,4.085q-.046.213-.084.418a2.037,2.037,0,0,0-.038.372,1.037,1.037,0,0,0,.273.744,1.077,1.077,0,0,0,.82.289,1.643,1.643,0,0,0,.995-.3,2.489,2.489,0,0,0,.691-.774,3.849,3.849,0,0,0,.41-1.04,4.72,4.72,0,0,0,.137-1.1,4.61,4.61,0,0,0-.418-1.914,5.25,5.25,0,0,0-1.162-1.64,5.75,5.75,0,0,0-1.777-1.147,6.069,6.069,0,0,0-4.594.038,6.212,6.212,0,0,0-1.959,1.3,6.415,6.415,0,0,0-1.352,1.951,6.082,6.082,0,0,0-.083,4.669,5.379,5.379,0,0,0,3.014,3.015,6.154,6.154,0,0,0,2.361.44,6.926,6.926,0,0,0,1.974-.258,8.549,8.549,0,0,0,1.731-.745l.349.577a9.07,9.07,0,0,1-1.9.836,7.364,7.364,0,0,1-2.172.3,6.74,6.74,0,0,1-2.627-.5,6.37,6.37,0,0,1-2.073-1.374,6.28,6.28,0,0,1-1.359-2.035,6.368,6.368,0,0,1-.486-2.483,6.5,6.5,0,0,1,.524-2.559,7.107,7.107,0,0,1,1.45-2.194,7.3,7.3,0,0,1,2.18-1.541,6.366,6.366,0,0,1,2.726-.585,6.836,6.836,0,0,1,2.559.47,6.436,6.436,0,0,1,2.035,1.276,5.958,5.958,0,0,1,1.344,1.853,5.208,5.208,0,0,1,.486,2.217,5.425,5.425,0,0,1-.182,1.359,4.142,4.142,0,0,1-.562,1.276,3.192,3.192,0,0,1-.972.942,2.57,2.57,0,0,1-1.4.372,1.791,1.791,0,0,1-1.306-.433m-.9-4.867a1.936,1.936,0,0,0-1.215-.41,2.236,2.236,0,0,0-1.807.8,2.868,2.868,0,0,0-.668,1.906,2.219,2.219,0,0,0,.387,1.291,1.38,1.38,0,0,0,1.222.561,2.552,2.552,0,0,0,1.549-.5,2.838,2.838,0,0,0,.972-1.7,3.266,3.266,0,0,0,.091-.729,1.441,1.441,0,0,0-.532-1.215" transform="translate(-89.558 -81.813)" fill="#e20613"/>
                    <path id="Path_257200" data-name="Path 257200" d="M189.353,137.938a2.993,2.993,0,0,1-1.063-.919h-.046v4.009h-1.352V130.519h1.352v1.17h.046a3.367,3.367,0,0,1,1.109-.957,3.25,3.25,0,0,1,1.58-.365,3.634,3.634,0,0,1,2.559,1.01,4.526,4.526,0,0,1-.015,5.9,3.692,3.692,0,0,1-2.59,1.017,3.3,3.3,0,0,1-1.579-.357m3.128-1.572a3.142,3.142,0,0,0-.008-4.07,2.468,2.468,0,0,0-1.754-.714,2.555,2.555,0,0,0-1.769.714,2.634,2.634,0,0,0-.782,2.05,2.6,2.6,0,0,0,.782,2.02,2.554,2.554,0,0,0,1.769.714,2.459,2.459,0,0,0,1.762-.714" transform="translate(-113.273 -86.439)" fill="#e20613"/>
                    <rect id="Rectangle_342059" data-name="Rectangle 342059" width="1.352" height="10.631" transform="translate(83.37 41.074)" fill="#e20613"/>
                    <path id="Path_257201" data-name="Path 257201" d="M224.206,133.534a8.7,8.7,0,0,1,.927.16v-.3a1.736,1.736,0,0,0-.555-1.443,2.24,2.24,0,0,0-1.435-.44,3.2,3.2,0,0,0-1.138.19,4.62,4.62,0,0,0-1.049.585l-.637-.957a5.983,5.983,0,0,1,1.268-.683,4.157,4.157,0,0,1,1.541-.273,3.925,3.925,0,0,1,2.384.691,2.647,2.647,0,0,1,.941,2.286v4.8h-1.321V137.05h-.046a3.349,3.349,0,0,1-1.018.866,3.13,3.13,0,0,1-1.595.38,3,3,0,0,1-1.83-.555,2.344,2.344,0,0,1,.221-3.622,3.966,3.966,0,0,1,2.263-.653,8.73,8.73,0,0,1,1.078.068m.927,1.162a7.017,7.017,0,0,0-.828-.167,7.934,7.934,0,0,0-1.07-.061,2.48,2.48,0,0,0-1.42.4,1.249,1.249,0,0,0-.584,1.093q0,1.306,1.58,1.306a2.472,2.472,0,0,0,1.594-.592,1.708,1.708,0,0,0,.73-1.337Z" transform="translate(-133.274 -86.439)" fill="#e20613"/>
                    <path id="Path_257202" data-name="Path 257202" d="M243.794,124.562a1.029,1.029,0,0,1-1.4,0,.88.88,0,0,1,0-1.245,1.029,1.029,0,0,1,1.4,0,.88.88,0,0,1,0,1.245m-1.4,1.519h1.367V133.7H242.4Z" transform="translate(-146.757 -82)" fill="#e20613"/>
                    <path id="Path_257203" data-name="Path 257203" d="M252.535,137.991a5.1,5.1,0,0,1-1.337-.865l.82-.926a4.368,4.368,0,0,0,1.018.736,2.374,2.374,0,0,0,1.079.251,1.939,1.939,0,0,0,1.048-.258.829.829,0,0,0,.41-.745.906.906,0,0,0-.433-.82,5.692,5.692,0,0,0-1.207-.531q-.41-.136-.828-.312a3.147,3.147,0,0,1-.752-.44,2.2,2.2,0,0,1-.547-.638,1.792,1.792,0,0,1-.213-.9,1.887,1.887,0,0,1,.759-1.6,3.1,3.1,0,0,1,1.914-.57,3.937,3.937,0,0,1,2.6.881l-.79.9a2.555,2.555,0,0,0-1.792-.653,1.508,1.508,0,0,0-.957.265.857.857,0,0,0-.334.706.923.923,0,0,0,.577.9,12.178,12.178,0,0,0,1.154.463,5.948,5.948,0,0,1,1.572.789,1.7,1.7,0,0,1,.676,1.473,1.839,1.839,0,0,1-.85,1.648,3.614,3.614,0,0,1-2.02.554,3.883,3.883,0,0,1-1.564-.3" transform="translate(-152.248 -86.439)" fill="#e20613"/>
                    <path id="Path_257204" data-name="Path 257204" d="M272.283,124.562a1.029,1.029,0,0,1-1.4,0,.88.88,0,0,1,0-1.245,1.029,1.029,0,0,1,1.4,0,.879.879,0,0,1,0,1.245m-1.4,1.519h1.367V133.7h-1.367Z" transform="translate(-164.024 -82)" fill="#e20613"/>
                    <path id="Path_257205" data-name="Path 257205" d="M281.32,137.149a4.165,4.165,0,1,1,2.862,1.147,3.856,3.856,0,0,1-2.862-1.147m4.753-.873a2.955,2.955,0,0,0-.015-3.887,2.432,2.432,0,0,0-1.876-.805,2.4,2.4,0,0,0-1.875.805,2.811,2.811,0,0,0-.721,1.944,2.748,2.748,0,0,0,.737,1.936,2.612,2.612,0,0,0,3.751.008" transform="translate(-169.819 -86.439)" fill="#e20613"/>
                  </g>
                </g>
              </g>
            </g>
          </g>
        </g>
      </g>
    </g>
  </g>
</svg>
