<svg xmlns="http://www.w3.org/2000/svg" xmlns:xlink="http://www.w3.org/1999/xlink" width="753" height="404" viewBox="0 0 753 404">
  <defs>
    <clipPath id="clip-header">
      <rect width="753" height="404"/>
    </clipPath>
  </defs>
  <g id="header" clip-path="url(#clip-header)">
    <g id="Group_948826" data-name="Group 948826" transform="translate(-583.479 -116.467)">
      <path id="Subtraction_2" data-name="Subtraction 2" d="M3527.3,640.132H2916.418a1.13,1.13,0,0,1-.129-.006h-36.161a6.274,6.274,0,0,1-6.268-6.267V547.4l2.628-.764v87.221a3.643,3.643,0,0,0,3.64,3.639h64.2c.041,0,.085,0,.139.007H3527.3a3.209,3.209,0,0,0,3.2-3.206V548.732l2.628.763v84.8A5.84,5.84,0,0,1,3527.3,640.132Zm5.84-229.8h0l-.14-.037-.678-.184-1.809-.49V333.095a3.88,3.88,0,0,0-3.875-3.875H2880.325a3.854,3.854,0,0,0-3.837,3.837V407.7c-.817.215-1.677.442-2.628.694V333.056a6.482,6.482,0,0,1,6.465-6.465h307.253l-41.5-25.154a1.314,1.314,0,1,1,1.363-2.246l45.208,27.4h41.667l45.208-27.4a1.314,1.314,0,1,1,1.363,2.246l-41.5,25.154h287.253a6.511,6.511,0,0,1,6.5,6.5Z" transform="translate(-2240.308 -151.532)" fill="#fff"/>
      <g id="Group_948824" data-name="Group 948824" transform="translate(2223 1021.25)">
        <g id="Group_948823" data-name="Group 948823" transform="translate(-1612.522 -786.906)">
          <g id="Group_948821" data-name="Group 948821" transform="translate(9.135 9.518)">
            <g id="Group_948819" data-name="Group 948819" transform="translate(0 0)">
              <path id="Path_410028" data-name="Path 410028" d="M69.1,108.1a29.188,29.188,0,0,1,15.71,4.285c4.683,2.878,7.667,7.4,9,13.518,1.708,7.827-.056,14.613-5.169,20.412S75.9,156.218,65.681,158.78q-20.167,5.06-40.187,10.875Q12.748,125.779,0,81.9,21.017,75.8,42.191,70.461c9.006-2.269,17.052-2.327,24.035-.238s11.366,7.3,13.2,15.539c1.137,5.1.491,9.5-1.9,13.208a30.224,30.224,0,0,1-8.488,8.872l.06.254m-37.568,3.331q7.806-2.111,15.635-4.114c9.171-2.339,12.984-6.683,11.409-13.2a9.6,9.6,0,0,0-4.15-6.31c-2.049-1.244-5.28-1.324-9.673-.211q-9.2,2.332-18.367,4.811l5.146,19.029m9.711,35.915q9.778-2.644,19.59-5.111c9.322-2.337,13.187-6.851,11.564-13.717-1.5-6.342-7.467-8.316-17.863-5.7q-9.317,2.355-18.607,4.867l5.316,19.658" transform="translate(0 -33.517)" stroke="#000" stroke-linecap="round" stroke-linejoin="bevel" stroke-width="20"/>
              <path id="Path_410029" data-name="Path 410029" d="M252.5,79.772c-6.294,5.448-14.4,8.99-24.435,10.746q-6.989,1.224-13.966,2.534,3.216,17.128,6.431,34.257-10.282,1.931-20.536,4.053-9.262-44.742-18.525-89.484,18.1-3.747,36.283-6.939c10.336-1.815,19.657-1.041,27.83,2.245s12.905,9.863,14.291,19.594c1.413,9.912-1.089,17.551-7.373,22.994M231.3,52.286a26.3,26.3,0,0,0-11.1-.15q-6.668,1.175-13.325,2.424,2.023,10.778,4.046,21.555,6.6-1.24,13.218-2.4a24.571,24.571,0,0,0,9.869-3.943q4.282-2.963,3.226-9.528-1.089-6.7-5.929-7.954" transform="translate(-88.527 -16.577)" stroke="#000" stroke-linecap="round" stroke-linejoin="bevel" stroke-width="20"/>
              <path id="Path_410030" data-name="Path 410030" d="M351.349,13.625Q386.967,8.907,422.763,6.3q.679,9.309,1.358,18.619-24.166,1.762-48.268,4.5.943,8.3,1.887,16.6,21.144-2.4,42.346-4.044l1.4,18.092q-20.873,1.615-41.7,3.982l2.153,18.937q23.614-2.684,47.3-4.386l1.347,18.75q-33.693,2.421-67.244,6.863l-12-90.59" transform="translate(-171.4 -3.072)" stroke="#000" stroke-linecap="round" stroke-linejoin="bevel" stroke-width="20"/>
              <path id="Path_410031" data-name="Path 410031" d="M519.683,2.237Q558.049-.091,596.487,0q-.023,9.269-.046,18.537-22.251-.055-44.5.716,12.081,12.121,23.68,24.481Q562.582,58.493,550.2,73.531q23.715-.9,47.447-.811-.034,9.334-.068,18.668-37.186-.134-74.339,2.184-.5-8.014-1-16.026,12.533-16.152,25.8-32.02Q534.66,31.8,520.663,18.395q-.49-8.079-.98-16.158" transform="translate(-253.519 0)" stroke="#000" stroke-linecap="round" stroke-linejoin="bevel" stroke-width="20"/>
              <path id="Path_410032" data-name="Path 410032" d="M815.745,24.266q-3.1,36.159-6.193,72.318-10.389-.89-20.789-1.587,2.427-36.21,4.854-72.42-14.082-.944-28.179-1.556.408-9.39.815-18.781,39.959,1.735,79.788,6.095Q845.019,17.678,844,27.022q-14.112-1.546-28.25-2.756" transform="translate(-373.407 -1.093)" stroke="#000" stroke-linecap="round" stroke-linejoin="bevel" stroke-width="20"/>
              <path id="Path_410033" data-name="Path 410033" d="M935.75,16.8q11.2,1.338,22.384,2.885-2.405,17.392-4.811,34.785,19.519,2.7,38.965,6.052,2.984-17.3,5.968-34.605,11.137,1.921,22.248,4.05-8.6,44.874-17.2,89.748-10.276-1.969-20.58-3.746l6.389-37.05q-19.136-3.3-38.35-5.958-2.575,18.622-5.151,37.242-10.343-1.43-20.705-2.668Q930.33,62.172,935.75,16.8" transform="translate(-451.202 -8.197)" stroke="#000" stroke-linecap="round" stroke-linejoin="bevel" stroke-width="20"/>
              <path id="Path_410034" data-name="Path 410034" d="M1187.209,120.281q7.236-26.713,14.473-53.425,10.688,2.9,21.335,5.989-12.748,43.876-25.495,87.752-8.7-2.527-17.424-4.911-15.51-34.348-33.609-68.291l-.272-.062q-6.449,28.321-12.9,56.642-10.026-2.282-20.083-4.381,9.331-44.727,18.662-89.455,10.872,2.268,21.712,4.737,17.771,32.431,33.2,65.3l.4.108" transform="translate(-543.074 -24.459)" stroke="#000" stroke-linecap="round" stroke-linejoin="bevel" stroke-width="20"/>
            </g>
          </g>
          <g id="Group_948818" data-name="Group 948818" transform="translate(0 0)">
            <g id="Group_948819-2" data-name="Group 948819" transform="translate(0 0)">
              <path id="Path_410028-2" data-name="Path 410028" d="M70.959,109.155a29.972,29.972,0,0,1,16.132,4.4c4.809,2.956,7.873,7.6,9.245,13.881,1.753,8.037-.058,15.006-5.308,20.96s-13.087,10.173-23.582,12.8q-20.708,5.2-41.266,11.167Q13.09,127.312,0,82.257q21.582-6.27,43.325-11.749c9.248-2.33,17.51-2.389,24.681-.245s11.671,7.5,13.556,15.956c1.168,5.233.5,9.754-1.95,13.563a31.036,31.036,0,0,1-8.716,9.111l.062.261m-38.578,3.42q8.016-2.168,16.055-4.224c9.417-2.4,13.333-6.862,11.716-13.559a9.859,9.859,0,0,0-4.261-6.48c-2.1-1.277-5.422-1.36-9.933-.217q-9.445,2.394-18.86,4.941l5.284,19.54m9.972,36.88q10.04-2.715,20.116-5.249c9.572-2.4,13.542-7.035,11.874-14.086-1.542-6.513-7.668-8.539-18.343-5.85q-9.568,2.419-19.107,5l5.459,20.187" transform="translate(0 -32.571)" stroke="#000" stroke-linecap="round" stroke-linejoin="round" stroke-width="10"/>
              <path id="Path_410029-2" data-name="Path 410029" d="M254.41,81c-6.463,5.595-14.79,9.232-25.091,11.034q-7.177,1.257-14.342,2.6,3.3,17.588,6.6,35.177-10.559,1.982-21.088,4.162Q190.982,88.034,181.47,42.09q18.587-3.847,37.258-7.126c10.613-1.863,20.185-1.069,28.577,2.306S260.557,47.4,261.981,57.39c1.451,10.178-1.119,18.023-7.571,23.612M232.644,52.778a27.006,27.006,0,0,0-11.4-.154q-6.847,1.206-13.683,2.489,2.077,11.067,4.155,22.134,6.781-1.273,13.574-2.468A25.231,25.231,0,0,0,235.42,70.73q4.4-3.043,3.312-9.784-1.119-6.878-6.089-8.168" transform="translate(-86.03 -16.109)" stroke="#000" stroke-linecap="round" stroke-linejoin="round" stroke-width="10"/>
              <path id="Path_410030-2" data-name="Path 410030" d="M351.349,13.821Q387.924,8.977,424.682,6.3q.7,9.559,1.394,19.119-24.815,1.809-49.564,4.621.969,8.525,1.938,17.048,21.712-2.468,43.484-4.152l1.437,18.578q-21.434,1.658-42.817,4.089l2.211,19.446q24.249-2.756,48.574-4.5L432.723,99.8q-34.6,2.486-69.051,7.047L351.349,13.821" transform="translate(-166.565 -2.986)" stroke="#000" stroke-linecap="round" stroke-linejoin="round" stroke-width="10"/>
              <path id="Path_410031-2" data-name="Path 410031" d="M519.683,2.3Q559.079-.093,598.551,0q-.024,9.518-.047,19.035-22.849-.056-45.693.735,12.405,12.446,24.316,25.138-13.392,15.152-26.105,30.594,24.352-.921,48.721-.833-.036,9.585-.07,19.17-38.185-.138-76.336,2.243-.514-8.229-1.028-16.457,12.87-16.586,26.5-32.88-13.743-14.09-28.117-27.86-.5-8.3-1.007-16.592" transform="translate(-246.367 0)" stroke="#000" stroke-linecap="round" stroke-linejoin="round" stroke-width="10"/>
              <path id="Path_410032-2" data-name="Path 410032" d="M817.1,24.858q-3.18,37.131-6.359,74.261Q800.07,98.2,789.39,97.489q2.492-37.183,4.985-74.366-14.46-.97-28.936-1.6.419-9.643.837-19.286Q807.309,4.022,848.208,8.5q-1.051,9.594-2.1,19.189Q831.615,26.1,817.1,24.858" transform="translate(-362.874 -1.062)" stroke="#000" stroke-linecap="round" stroke-linejoin="round" stroke-width="10"/>
              <path id="Path_410033-2" data-name="Path 410033" d="M936.041,16.8q11.5,1.374,22.985,2.963-2.47,17.86-4.941,35.72Q974.129,58.259,994.1,61.7q3.064-17.767,6.128-35.535,11.436,1.972,22.846,4.159-8.829,46.08-17.66,92.16-10.552-2.022-21.133-3.847,3.28-19.023,6.561-38.045Q971.19,77.2,951.459,74.475q-2.644,19.122-5.29,38.243-10.621-1.469-21.262-2.74,5.567-46.587,11.133-93.174" transform="translate(-438.474 -7.966)" stroke="#000" stroke-linecap="round" stroke-linejoin="round" stroke-width="10"/>
              <path id="Path_410034-2" data-name="Path 410034" d="M1189.2,122.166q7.431-27.431,14.862-54.861,10.975,2.973,21.908,6.15-13.09,45.055-26.179,90.11-8.931-2.595-17.893-5.043-15.926-35.271-34.513-70.126l-.279-.064q-6.622,29.082-13.245,58.164-10.3-2.344-20.623-4.5,9.582-45.929,19.163-91.859,11.163,2.329,22.3,4.864,18.248,33.3,34.095,67.053l.408.11" transform="translate(-527.755 -23.769)" stroke="#000" stroke-linecap="round" stroke-linejoin="round" stroke-width="10"/>
            </g>
          </g>
          <g id="Group_948822" data-name="Group 948822" transform="translate(0 0)">
            <g id="Group_948819-3" data-name="Group 948819" transform="translate(0 0)">
              <path id="Path_410028-3" data-name="Path 410028" d="M70.959,109.155a29.972,29.972,0,0,1,16.132,4.4c4.809,2.956,7.873,7.6,9.245,13.881,1.753,8.037-.058,15.006-5.308,20.96s-13.087,10.173-23.582,12.8q-20.708,5.2-41.266,11.167Q13.09,127.312,0,82.257q21.582-6.27,43.325-11.749c9.248-2.33,17.51-2.389,24.681-.245s11.671,7.5,13.556,15.956c1.168,5.233.5,9.754-1.95,13.563a31.036,31.036,0,0,1-8.716,9.111l.062.261m-38.578,3.42q8.016-2.168,16.055-4.224c9.417-2.4,13.333-6.862,11.716-13.559a9.859,9.859,0,0,0-4.261-6.48c-2.1-1.277-5.422-1.36-9.933-.217q-9.445,2.394-18.86,4.941l5.284,19.54m9.972,36.88q10.04-2.715,20.116-5.249c9.572-2.4,13.542-7.035,11.874-14.086-1.542-6.513-7.668-8.539-18.343-5.85q-9.568,2.419-19.107,5l5.459,20.187" transform="translate(0 -32.571)" fill="#fff" stroke="#fff" stroke-width="1"/>
              <path id="Path_410029-3" data-name="Path 410029" d="M254.41,81c-6.463,5.595-14.79,9.232-25.091,11.034q-7.177,1.257-14.342,2.6,3.3,17.588,6.6,35.177-10.559,1.982-21.088,4.162Q190.982,88.034,181.47,42.09q18.587-3.847,37.258-7.126c10.613-1.863,20.185-1.069,28.577,2.306S260.557,47.4,261.981,57.39c1.451,10.178-1.119,18.023-7.571,23.612M232.644,52.778a27.006,27.006,0,0,0-11.4-.154q-6.847,1.206-13.683,2.489,2.077,11.067,4.155,22.134,6.781-1.273,13.574-2.468A25.231,25.231,0,0,0,235.42,70.73q4.4-3.043,3.312-9.784-1.119-6.878-6.089-8.168" transform="translate(-86.03 -16.109)" fill="#fff" stroke="#fff" stroke-width="1"/>
              <path id="Path_410030-3" data-name="Path 410030" d="M351.349,13.821Q387.924,8.977,424.682,6.3q.7,9.559,1.394,19.119-24.815,1.809-49.564,4.621.969,8.525,1.938,17.048,21.712-2.468,43.484-4.152l1.437,18.578q-21.434,1.658-42.817,4.089l2.211,19.446q24.249-2.756,48.574-4.5L432.723,99.8q-34.6,2.486-69.051,7.047L351.349,13.821" transform="translate(-166.565 -2.986)" fill="#fff" stroke="#fff" stroke-width="1"/>
              <path id="Path_410031-3" data-name="Path 410031" d="M519.683,2.3Q559.079-.093,598.551,0q-.024,9.518-.047,19.035-22.849-.056-45.693.735,12.405,12.446,24.316,25.138-13.392,15.152-26.105,30.594,24.352-.921,48.721-.833-.036,9.585-.07,19.17-38.185-.138-76.336,2.243-.514-8.229-1.028-16.457,12.87-16.586,26.5-32.88-13.743-14.09-28.117-27.86-.5-8.3-1.007-16.592" transform="translate(-246.367 0)" fill="#fff" stroke="#fff" stroke-width="1"/>
              <path id="Path_410032-3" data-name="Path 410032" d="M817.1,24.858q-3.18,37.131-6.359,74.261Q800.07,98.2,789.39,97.489q2.492-37.183,4.985-74.366-14.46-.97-28.936-1.6.419-9.643.837-19.286Q807.309,4.022,848.208,8.5q-1.051,9.594-2.1,19.189Q831.615,26.1,817.1,24.858" transform="translate(-362.874 -1.062)" fill="#fff" stroke="#fff" stroke-width="1"/>
              <path id="Path_410033-3" data-name="Path 410033" d="M936.041,16.8q11.5,1.374,22.985,2.963-2.47,17.86-4.941,35.72Q974.129,58.259,994.1,61.7q3.064-17.767,6.128-35.535,11.436,1.972,22.846,4.159-8.829,46.08-17.66,92.16-10.552-2.022-21.133-3.847,3.28-19.023,6.561-38.045Q971.19,77.2,951.459,74.475q-2.644,19.122-5.29,38.243-10.621-1.469-21.262-2.74,5.567-46.587,11.133-93.174" transform="translate(-438.474 -7.966)" fill="#fff" stroke="#fff" stroke-width="1"/>
              <path id="Path_410034-3" data-name="Path 410034" d="M1189.2,122.166q7.431-27.431,14.862-54.861,10.975,2.973,21.908,6.15-13.09,45.055-26.179,90.11-8.931-2.595-17.893-5.043-15.926-35.271-34.513-70.126l-.279-.064q-6.622,29.082-13.245,58.164-10.3-2.344-20.623-4.5,9.582-45.929,19.163-91.859,11.163,2.329,22.3,4.864,18.248,33.3,34.095,67.053l.408.11" transform="translate(-527.755 -23.769)" fill="#fff" stroke="#fff" stroke-width="1"/>
            </g>
          </g>
        </g>
        <path id="Path_410035" data-name="Path 410035" d="M-163.56,1.752h9.87V-41.975h-9.87Zm50.849-17.241-21.364-26.486h-9.682V1.752h9.682v-27.8h.125l22.551,27.8h8.5V-41.975h-9.62v26.486ZM-61.363-32.98v-9H-96.408v9h12.556V1.752h9.87V-32.98Zm4.935-1.249,11.681,13.618L-57.365-5.932V1.752h35.232V-7.181H-44.247l12.056-13.93L-42.561-33.1h19.8v-8.87h-33.67Zm66.84,18.865H-1.02L4.665-29.419H4.79Zm3.311,8.121,3.686,9H28.09L9.162-42.163H.542L-18.448,1.752H-8.016l3.686-9ZM51.765-34.229,63.447-20.611,50.828-5.932V1.752H86.06V-7.181H63.946L76-21.111,65.633-33.1h19.8v-8.87H51.765ZM114.857,2.376c14.055,0,23.675-9.682,23.675-22.488S128.413-42.6,114.982-42.6c-14.055,0-23.613,9.682-23.613,22.488S101.427,2.376,114.857,2.376Zm.125-9c-7.746,0-13.368-5.435-13.368-13.493s5.5-13.493,13.243-13.493,13.431,5.435,13.431,13.493S122.728-6.619,114.982-6.619ZM160.4-25.859h-.125L150.9-41.975H139.095l16.179,25.986V1.752h9.87V-15.989l16.242-25.986H169.954Z" transform="translate(-1271.877 -598.65)" fill="#f4ff0d"/>
        <line id="Line_211" data-name="Line 211" x1="52" transform="translate(-1502.5 -615.75)" fill="none" stroke="#f4ff0d" stroke-linecap="round" stroke-width="2"/>
        <line id="Line_212" data-name="Line 212" x1="52" transform="translate(-1075.429 -615.75)" fill="none" stroke="#f4ff0d" stroke-linecap="round" stroke-width="2"/>
      </g>
    </g>
  </g>
</svg>
